<?xml version="1.0" encoding="utf-8"?><svg fill="none" viewBox="0 0 512 512" xmlns="http://www.w3.org/2000/svg"><defs><linearGradient id="null" gradientUnits="userSpaceOnUse" spreadMethod="pad" x2="70" y2="26" x1="-130" y1="26"><stop offset="0%" stop-color="#7f88eb" /><stop offset="25.5%" stop-color="#bfc3f5" /><stop offset="51%" stop-color="#ffffff" /><stop offset="75.5%" stop-color="#dae1ef" /><stop offset="100%" stop-color="#b5c3df" /></linearGradient><linearGradient id="null" gradientUnits="userSpaceOnUse" spreadMethod="pad" x2="-97.825" y2="23" x1="-117" y1="23"><stop offset="0%" stop-color="#f0f5fa" /><stop offset="34.8%" stop-color="#f7fafd" /><stop offset="51.5%" stop-color="#ffffff" /><stop offset="63.5%" stop-color="#e6e6e6" /><stop offset="100%" stop-color="#cccccc" /></linearGradient><linearGradient id="null" gradientUnits="userSpaceOnUse" spreadMethod="pad" x2="70" y2="26" x1="-130" y1="26"><stop offset="0%" stop-color="#021c59" /><stop offset="25.3%" stop-color="#052161" /><stop offset="50.6%" stop-color="#082569" /><stop offset="75.3%" stop-color="#041e5e" /><stop offset="100%" stop-color="#001653" /></linearGradient><linearGradient id="null" gradientUnits="userSpaceOnUse" spreadMethod="pad" x2="-97.825" y2="23" x1="-117" y1="23"><stop offset="0%" stop-color="#f0f5fa" /><stop offset="34.8%" stop-color="#f7fafd" /><stop offset="51.5%" stop-color="#ffffff" /><stop offset="63.5%" stop-color="#e6e6e6" /><stop offset="100%" stop-color="#cccccc" /></linearGradient><radialGradient id="null" gradientUnits="userSpaceOnUse" spreadMethod="pad" cx="56975.996" cy="-19431.299" r="60198.33470304155" fy="-19431.299" fx="56975.996"><stop offset="0%" stop-color="#ff932c" /><stop offset="28.4%" stop-color="#f48026" /><stop offset="56.8%" stop-color="#e86d20" /><stop offset="71.39999999999999%" stop-color="#e8621c" /><stop offset="86%" stop-color="#e85718" /><stop offset="93%" stop-color="#a62c0c" /><stop offset="100%" stop-color="#640000" /></radialGradient><linearGradient id="null" gradientUnits="userSpaceOnUse" spreadMethod="pad" x2="0" y2="0" x1="-46624.289" y1="-39073.941"><stop offset="0%" stop-color="#f9a020" /><stop offset="10.2%" stop-color="#f99f20" /><stop offset="20.4%" stop-color="#f99d20" /><stop offset="31.900000000000002%" stop-color="#f89820" /><stop offset="43.5%" stop-color="#f79320" /><stop offset="52.7%" stop-color="#f68d20" /><stop offset="62%" stop-color="#f68820" /><stop offset="70.8%" stop-color="#f68320" /><stop offset="79.7%" stop-color="#f57e20" /><stop offset="89.8%" stop-color="#f57a20" /><stop offset="100%" stop-color="#f47521" /></linearGradient><linearGradient id="null" gradientUnits="userSpaceOnUse" spreadMethod="pad" x2="76.33" y2="13.878" x1="82" y1="5"><stop offset="20.4%" stop-color="#f99d20" /><stop offset="31.900000000000002%" stop-color="#f89820" /><stop offset="43.5%" stop-color="#f79320" /><stop offset="52.7%" stop-color="#f68d20" /><stop offset="62%" stop-color="#f68820" /><stop offset="70.8%" stop-color="#f68320" /><stop offset="79.7%" stop-color="#f57e20" /><stop offset="89.8%" stop-color="#f57a20" /><stop offset="100%" stop-color="#f47521" /></linearGradient><radialGradient id="null" gradientUnits="userSpaceOnUse" spreadMethod="pad" cx="62" cy="28" r="12.849999999999994" fy="28" fx="62"><stop offset="0%" stop-color="#ff932c" /><stop offset="28.4%" stop-color="#f48026" /><stop offset="56.8%" stop-color="#e86d20" /><stop offset="71.39999999999999%" stop-color="#e8621c" /><stop offset="86%" stop-color="#e85718" /><stop offset="93%" stop-color="#a62c0c" /><stop offset="100%" stop-color="#640000" /></radialGradient><linearGradient id="null" gradientUnits="userSpaceOnUse" spreadMethod="pad" x2="83" y2="-24" x1="-117" y1="-24"><stop offset="0%" stop-color="#bfa000" /><stop offset="15.6%" stop-color="#dfc115" /><stop offset="32.2%" stop-color="#ffe22a" /><stop offset="49.5%" stop-color="#ffeb5f" /><stop offset="66.8%" stop-color="#fff394" /><stop offset="83.39999999999999%" stop-color="#ffd95f" /><stop offset="100%" stop-color="#ffbe2a" /></linearGradient><linearGradient id="null" gradientUnits="userSpaceOnUse" spreadMethod="pad" x2="-84.825" y2="-27" x1="-104" y1="-27"><stop offset="0%" stop-color="#f0f5fa" /><stop offset="25.2%" stop-color="#f7fafd" /><stop offset="50.5%" stop-color="#ffffff" /><stop offset="75.2%" stop-color="#e6e6e6" /><stop offset="100%" stop-color="#cccccc" /></linearGradient><linearGradient id="null" gradientUnits="userSpaceOnUse" spreadMethod="pad" x2="-97.825" y2="23" x1="-117" y1="23"><stop offset="0%" stop-color="#f0f5fa" /><stop offset="34.8%" stop-color="#f7fafd" /><stop offset="51.5%" stop-color="#ffffff" /><stop offset="63.5%" stop-color="#e6e6e6" /><stop offset="100%" stop-color="#cccccc" /></linearGradient><linearGradient id="null" gradientUnits="userSpaceOnUse" spreadMethod="pad" x2="70" y2="26" x1="-130" y1="26"><stop offset="0%" stop-color="#161616" /><stop offset="25.5%" stop-color="#1e1e1e" /><stop offset="51%" stop-color="#262626" /><stop offset="75.5%" stop-color="#1f1f1f" /><stop offset="100%" stop-color="#171717" /></linearGradient><linearGradient id="null" gradientUnits="userSpaceOnUse" spreadMethod="pad" x2="-97.825" y2="23" x1="-117" y1="23"><stop offset="0%" stop-color="#f0f5fa" /><stop offset="34.8%" stop-color="#f7fafd" /><stop offset="51.5%" stop-color="#ffffff" /><stop offset="63.5%" stop-color="#e6e6e6" /><stop offset="100%" stop-color="#cccccc" /></linearGradient><linearGradient id="null" gradientUnits="userSpaceOnUse" spreadMethod="pad" x2="70" y2="26" x1="-130" y1="26"><stop offset="0%" stop-color="#7f88eb" /><stop offset="25.5%" stop-color="#bfc3f5" /><stop offset="51%" stop-color="#ffffff" /><stop offset="75.5%" stop-color="#dae1ef" /><stop offset="100%" stop-color="#b5c3df" /></linearGradient><linearGradient id="null" gradientUnits="userSpaceOnUse" spreadMethod="pad" x2="-97.825" y2="23" x1="-117" y1="23"><stop offset="0%" stop-color="#f0f5fa" /><stop offset="34.8%" stop-color="#f7fafd" /><stop offset="51.5%" stop-color="#ffffff" /><stop offset="63.5%" stop-color="#e6e6e6" /><stop offset="100%" stop-color="#cccccc" /></linearGradient><linearGradient id="null" gradientUnits="userSpaceOnUse" spreadMethod="pad" x2="70" y2="26" x1="-130" y1="26"><stop offset="0%" stop-color="#021c59" /><stop offset="25.3%" stop-color="#052161" /><stop offset="50.6%" stop-color="#082569" /><stop offset="75.3%" stop-color="#041e5e" /><stop offset="100%" stop-color="#001653" /></linearGradient><linearGradient id="null" gradientUnits="userSpaceOnUse" spreadMethod="pad" x2="-97.825" y2="23" x1="-117" y1="23"><stop offset="0%" stop-color="#f0f5fa" /><stop offset="34.8%" stop-color="#f7fafd" /><stop offset="51.5%" stop-color="#ffffff" /><stop offset="63.5%" stop-color="#e6e6e6" /><stop offset="100%" stop-color="#cccccc" /></linearGradient><radialGradient id="null" gradientUnits="userSpaceOnUse" spreadMethod="pad" cx="56975.996" cy="-19431.299" r="60198.33470304155" fy="-19431.299" fx="56975.996"><stop offset="0%" stop-color="#ff932c" /><stop offset="28.4%" stop-color="#f48026" /><stop offset="56.8%" stop-color="#e86d20" /><stop offset="71.39999999999999%" stop-color="#e8621c" /><stop offset="86%" stop-color="#e85718" /><stop offset="93%" stop-color="#a62c0c" /><stop offset="100%" stop-color="#640000" /></radialGradient><linearGradient id="null" gradientUnits="userSpaceOnUse" spreadMethod="pad" x2="0" y2="0" x1="-46624.289" y1="-39073.941"><stop offset="0%" stop-color="#f9a020" /><stop offset="10.2%" stop-color="#f99f20" /><stop offset="20.4%" stop-color="#f99d20" /><stop offset="31.900000000000002%" stop-color="#f89820" /><stop offset="43.5%" stop-color="#f79320" /><stop offset="52.7%" stop-color="#f68d20" /><stop offset="62%" stop-color="#f68820" /><stop offset="70.8%" stop-color="#f68320" /><stop offset="79.7%" stop-color="#f57e20" /><stop offset="89.8%" stop-color="#f57a20" /><stop offset="100%" stop-color="#f47521" /></linearGradient><linearGradient id="null" gradientUnits="userSpaceOnUse" spreadMethod="pad" x2="76.33" y2="13.878" x1="82" y1="5"><stop offset="20.4%" stop-color="#f99d20" /><stop offset="31.900000000000002%" stop-color="#f89820" /><stop offset="43.5%" stop-color="#f79320" /><stop offset="52.7%" stop-color="#f68d20" /><stop offset="62%" stop-color="#f68820" /><stop offset="70.8%" stop-color="#f68320" /><stop offset="79.7%" stop-color="#f57e20" /><stop offset="89.8%" stop-color="#f57a20" /><stop offset="100%" stop-color="#f47521" /></linearGradient><radialGradient id="null" gradientUnits="userSpaceOnUse" spreadMethod="pad" cx="62" cy="28" r="12.849999999999994" fy="28" fx="62"><stop offset="0%" stop-color="#ff932c" /><stop offset="28.4%" stop-color="#f48026" /><stop offset="56.8%" stop-color="#e86d20" /><stop offset="71.39999999999999%" stop-color="#e8621c" /><stop offset="86%" stop-color="#e85718" /><stop offset="93%" stop-color="#a62c0c" /><stop offset="100%" stop-color="#640000" /></radialGradient></defs><g transform="matrix(1.27,0,0,1.27,192.5,125.5)" id="Null 1"><g id="Card Null"><g transform="translate(-15,152)"><animateTransform repeatCount="indefinite" type="translate" attributeName="transform" dur="3s" begin="2.7s" calcMode="spline" values="-15 152; 45 64; 45 64; 45 95; 45 95; 45 349" keyTimes="0; 0.222; 0.333; 0.556; 0.778; 1" keySplines="0.57 0 0.43 1; 0 0 1 1; 0.79 0 0.21 1; 0 0 1 1; 0.27 0 0.2 1" fill="freeze" /><g transform="rotate(20)"><animateTransform repeatCount="indefinite" type="rotate" attributeName="transform" dur="0.667s" begin="3.7s" calcMode="spline" values="20; 40" keyTimes="0; 1" keySplines="0.79 0 0.21 1" fill="freeze" /><g transform="scale(1.005,1.005) translate(-50,-50)"><g opacity="0" visibility="hidden" id="Padlock Top"><animate repeatCount="indefinite" begin="2.767s" calcMode="discrete" fill="freeze" dur="10s" values="visible; visible" keyTimes="0; 1" attributeName="visibility" /><animate repeatCount="indefinite" attributeName="opacity" dur="2.666633333333333s" begin="3.033333333333333s" calcMode="spline" values="0; 1; 1; 1; 0" keyTimes="0; 0.25; 0.5; 0.75; 1" keySplines="0.57 0 0.43 1; 0.182 0 0.564 1; 0.38 0 0.841 1; 0.167 0 0.833 1" fill="freeze" /><g transform="translate(29.855,86.595)"><g transform="rotate(-89)"><animateTransform repeatCount="indefinite" type="rotate" attributeName="transform" dur="0.667s" begin="3.033s" calcMode="spline" values="-89; -40" keyTimes="0; 1" keySplines="0.57 0 0.43 1" fill="freeze" /><g transform="scale(0,0)"><animateTransform repeatCount="indefinite" type="scale" attributeName="transform" dur="0.667s" begin="3.033s" calcMode="spline" values="0 0; 0.896 0.896" keyTimes="0; 1" keySplines="0.57 0 0.43 1" fill="freeze" /><g transform="translate(48,27.6)"><g id="Group 1"><path stroke-linejoin="miter" stroke-linecap="round" stroke-width="24" stroke-opacity="1" stroke="#ffffff" d="M41.186,-27.6L41.186,-86.752C41.186,-109.49,21.183,-128,-3.402,-128C-27.987,-128,-48,-109.49,-48,-86.752L-48,-27.6" /></g></g></g></g></g></g></g></g></g></g></g><g transform="matrix(1.27,0,0,1.27,192.5,125.5)" id="Null 1"><g id="Card Null"><g transform="translate(-15,152)"><animateTransform repeatCount="indefinite" type="translate" attributeName="transform" dur="3s" begin="2.7s" calcMode="spline" values="-15 152; 45 64; 45 64; 45 95; 45 95; 45 349" keyTimes="0; 0.222; 0.333; 0.556; 0.778; 1" keySplines="0.57 0 0.43 1; 0 0 1 1; 0.79 0 0.21 1; 0 0 1 1; 0.27 0 0.2 1" fill="freeze" /><g transform="rotate(20)"><animateTransform repeatCount="indefinite" type="rotate" attributeName="transform" dur="0.667s" begin="3.7s" calcMode="spline" values="20; 40" keyTimes="0; 1" keySplines="0.79 0 0.21 1" fill="freeze" /><g transform="scale(1.005,1.005) translate(-50,-50)"><g id="Stripe Card"><animate repeatCount="indefinite" begin="0.033s" calcMode="discrete" fill="freeze" dur="3.667s" values="visible; hidden" keyTimes="0; 1" attributeName="visibility" /><g transform="translate(161.987,-110.126)"><animateTransform repeatCount="indefinite" type="translate" attributeName="transform" dur="3.333s" begin="0.033s" calcMode="spline" values="161.987 -110.126; 161.303 -112.005; 161.987 -110.126; 161.987 -110.126; 161.987 -122.126; 85.658 48.255" keyTimes="0; 0.2; 0.4; 0.6; 0.8; 1" keySplines="0.333 0 0.667 1; 0.333 0 0.667 1; 0 0 1 1; 0.27 0 0.43 1; 0.57 0 0.43 1" fill="freeze" /><g transform="rotate(-40)"><g transform="scale(0.85,0.85)"><animateTransform repeatCount="indefinite" type="scale" attributeName="transform" dur="0.667s" begin="2.7s" calcMode="spline" values="0.85 0.85; 1 1" keyTimes="0; 1" keySplines="0.57 0 0.43 1" fill="freeze" /><g id="Group 3"><path fill="url(#null)" d="M58,87L-118,87C-124.6,87,-130,81.6,-130,75L-130,-23C-130,-29.6,-124.6,-35,-118,-35L58,-35C64.6,-35,70,-29.6,70,-23L70,75C70,81.6,64.6,87,58,87Z" /></g><g id="Group 2"><g id="Group 1"><g id="Group 3"><path fill="#777777" fill-opacity="1" d="M-97.647,29.06C-97.646,30.053,-98.441,30.858,-99.423,30.859L-115.429,30.877C-116.411,30.878,-117.208,30.075,-117.209,29.082L-117.222,18.295C-117.223,17.301,-116.427,16.496,-115.445,16.495L-99.439,16.477C-98.457,16.476,-97.66,17.279,-97.658,18.273L-97.647,29.06Z" /></g><g id="Group 2"><g id="Group 1"><path fill="url(#null)" d="M-97.647,28.733C-97.646,29.686,-98.417,30.459,-99.369,30.46L-115.066,30.478C-116.028,30.479,-116.81,29.697,-116.81,28.731L-116.822,18.245C-116.823,17.279,-116.044,16.496,-115.082,16.495L-99.402,16.477C-98.441,16.476,-97.659,17.258,-97.658,18.223L-97.647,28.733Z" /></g></g><g id="Group 1"><g id="Group 10"><g id="Group 1"><path fill="#777777" fill-opacity="1" d="M-110.825,25.672L-110.825,22.081L-110.825,22.081L-110.825,25.672L-111.104,25.672L-110.825,25.672Z" /></g></g><g id="Group 9"><g id="Group 1"><path fill="#777777" fill-opacity="1" d="M-104.042,25.672L-104.042,22.081L-103.643,22.081L-103.643,25.672L-104.057,25.672L-104.042,25.672Z" /></g></g><g id="Group 8"><g id="Group 1"><path fill="#777777" fill-opacity="1" d="M-117.209,25.672L-117.209,25.273L-110.825,25.273L-110.825,25.672L-117.162,25.672L-117.209,25.672Z" /></g></g><g id="Group 7"><g id="Group 1"><path fill="#777777" fill-opacity="1" d="M-117.209,22.081L-117.209,21.682L-110.825,21.682L-110.825,22.081L-117.162,22.081L-117.209,22.081Z" /></g></g><g id="Group 6"><g id="Group 1"><path fill="#777777" fill-opacity="1" d="M-104.042,22.081L-104.042,21.682L-97.658,21.682L-97.658,22.081L-104.013,22.081L-104.042,22.081Z" /></g></g><g id="Group 5"><g id="Group 1"><path fill="#777777" fill-opacity="1" d="M-104.042,25.672L-104.042,25.273L-97.658,25.273L-97.658,25.672L-104.013,25.672L-104.042,25.672Z" /></g></g><g id="Group 4"><g id="Group 1"><g id="Group 1"><path fill="#777777" fill-opacity="1" d="M-115.163,16.734L-115.163,16.734L-115.163,16.734L-115.163,16.734ZM-114.815,22.081L-109.432,22.081C-109.412,21.967,-109.335,21.895,-109.286,21.834C-109.212,21.743,-109.118,21.632,-109.003,21.436L-109.003,21.436C-108.775,21.045,-108.54,20.379,-108.541,19.278L-108.541,19.278C-108.544,17.729,-109.068,17.062,-109.32,16.824L-109.32,16.824C-109.376,16.771,-109.417,16.741,-109.438,16.894L-109.438,16.894L-115.214,16.894L-115.214,16.495L-109.395,16.495L-109.377,16.536C-109.358,16.544,-108.367,17.138,-108.368,19.278L-108.368,19.278C-108.362,21.549,-109.35,22.115,-109.372,22.122L-109.372,22.122L-109.39,22.081L-114.815,22.081L-114.815,21.984L-114.815,22.081Z" /></g></g></g><g id="Group 3"><g id="Group 1"><g id="Group 1"><path fill="#777777" fill-opacity="1" d="M-99.677,16.734L-99.677,16.734L-99.677,16.734L-99.677,16.734ZM-105.408,21.979C-105.428,21.967,-105.505,21.895,-105.554,21.834C-105.629,21.743,-105.723,21.632,-105.838,21.436L-105.838,21.436C-106.066,21.045,-106.3,20.379,-106.299,19.278L-106.299,19.278C-106.296,17.729,-105.772,17.062,-105.52,16.824L-105.52,16.824C-105.464,16.771,-105.424,16.741,-105.403,16.495L-105.403,16.495L-99.653,16.495L-99.653,16.495L-105.445,16.495L-105.463,16.536C-105.483,16.544,-106.473,17.138,-106.473,19.278L-106.473,19.278C-106.478,21.549,-105.49,22.115,-105.468,22.122L-105.468,22.122L-105.45,22.132L-105.408,21.979Z" /></g></g></g><g id="Group 2"><g id="Group 1"><g id="Group 1"><path fill="#777777" fill-opacity="1" d="M-115.169,25.71L-115.219,25.687L-115.162,25.658L-115.169,25.71ZM-115.214,30.46L-109.091,30.453C-109.069,30.441,-108.987,30.37,-108.934,30.311C-108.855,30.221,-108.754,30.112,-108.631,29.919L-108.631,29.919C-108.387,29.534,-108.137,28.88,-108.137,27.797L-108.137,27.797C-108.141,26.273,-108.701,25.588,-108.97,25.354L-108.97,25.354C-109.03,25.302,-109.046,25.287,-109.068,25.273L-109.412,25.273L-115.14,25.273L-115.163,25.672L-109.408,25.666L-109.39,25.675C-109.37,25.682,-108.372,26.232,-108.373,28.215L-108.373,28.215C-108.367,30.319,-109.363,30.844,-109.385,30.85L-109.385,30.85L-109.403,30.859L-115.214,30.866L-115.214,30.458L-115.214,30.46Z" /></g></g></g><g id="Group 1"><g id="Group 1"><g id="Group 1"><path fill="#777777" fill-opacity="1" d="M-99.672,25.71L-99.622,25.687L-99.679,25.658L-99.672,25.71ZM-99.653,30.46L-105.777,30.453C-105.798,30.441,-105.881,30.37,-105.933,30.311C-106.013,30.221,-106.113,30.112,-106.236,29.919L-106.236,29.919C-106.48,29.534,-106.731,28.88,-106.73,27.797L-106.73,27.797C-106.727,26.273,-106.167,25.588,-105.897,25.354L-105.897,25.354C-105.837,25.302,-105.822,25.287,-105.8,25.273L-105.429,25.273L-99.701,25.273L-99.678,25.672L-105.46,25.666L-105.478,25.675C-105.498,25.682,-106.496,26.232,-106.495,28.215L-106.495,28.215C-106.501,30.319,-105.505,30.844,-105.482,30.85L-105.482,30.85L-105.465,30.859L-99.653,30.866L-99.653,30.458L-99.653,30.46Z" /></g></g></g></g></g><g id="Wifi Symbol"><g id="Group 4"><g id="Group 1"><path fill="#ffffff" fill-opacity="1" d="M-90.17,20.527C-90.021,20.527,-89.872,20.578,-89.751,20.682C-88.849,21.455,-88.332,22.579,-88.332,23.766C-88.332,25.035,-88.909,26.207,-89.915,26.983C-90.197,27.2,-90.601,27.148,-90.818,26.866C-91.035,26.584,-90.983,26.18,-90.701,25.962C-90.014,25.433,-89.62,24.632,-89.62,23.766C-89.62,22.956,-89.973,22.188,-90.589,21.66C-90.859,21.429,-90.891,21.022,-90.659,20.752C-90.532,20.603,-90.351,20.527,-90.17,20.527Z" /></g></g><g id="Group 3"><g id="Group 1"><path fill="#ffffff" fill-opacity="1" d="M-88.24,19.086C-88.072,19.086,-87.904,19.151,-87.778,19.281C-86.604,20.489,-85.957,22.081,-85.957,23.766C-85.957,25.44,-86.597,27.025,-87.758,28.23C-88.005,28.487,-88.413,28.494,-88.669,28.247C-88.925,28,-88.933,27.593,-88.686,27.336C-87.757,26.373,-87.246,25.105,-87.246,23.766C-87.246,22.419,-87.763,21.145,-88.701,20.179C-88.95,19.924,-88.944,19.516,-88.689,19.268C-88.563,19.146,-88.401,19.086,-88.24,19.086Z" /></g></g><g id="Group 2"><g id="Group 1"><path fill="#ffffff" fill-opacity="1" d="M-86.059,17.455C-85.882,17.455,-85.706,17.527,-85.579,17.669C-84.077,19.347,-83.249,21.512,-83.249,23.766C-83.249,25.922,-84.014,28.015,-85.403,29.66C-85.632,29.932,-86.039,29.966,-86.311,29.737C-86.583,29.507,-86.617,29.101,-86.388,28.829C-85.195,27.416,-84.538,25.618,-84.538,23.766C-84.538,21.83,-85.248,19.97,-86.539,18.529C-86.776,18.264,-86.754,17.856,-86.488,17.619C-86.365,17.509,-86.212,17.455,-86.059,17.455Z" /></g></g><g id="Group 1"><g id="Group 1"><path fill="#ffffff" fill-opacity="1" d="M-83.853,15.801C-83.671,15.801,-83.491,15.877,-83.364,16.025C-81.517,18.177,-80.5,20.926,-80.5,23.766C-80.5,26.461,-81.379,29.003,-83.043,31.117C-83.263,31.396,-83.668,31.445,-83.948,31.224C-84.228,31.004,-84.276,30.599,-84.056,30.32C-82.572,28.436,-81.788,26.169,-81.788,23.766C-81.788,21.234,-82.695,18.783,-84.341,16.864C-84.573,16.594,-84.542,16.188,-84.272,15.956C-84.151,15.852,-84.001,15.801,-83.853,15.801Z" /></g></g></g></g><g id="Group 1"><g id="Group 7"><path fill="#635bff" fill-opacity="1" d="M51.768,-7.216C51.768,-8.641,52.638,-9.234,53.433,-9.234C54.203,-9.234,55.023,-8.641,55.023,-7.216L51.768,-7.216ZM58,-6.017C58,-9.247,56.436,-11.795,53.446,-11.795C50.443,-11.795,48.627,-9.247,48.627,-6.042C48.627,-2.245,50.771,-0.327,53.849,-0.327C55.351,-0.327,56.486,-0.668,57.344,-1.147L57.344,-3.671C56.486,-3.242,55.502,-2.977,54.253,-2.977C53.029,-2.977,51.944,-3.406,51.806,-4.894L57.975,-4.894C57.975,-5.058,58,-5.714,58,-6.017Z" /></g><g id="Group 6"><path fill="#635bff" fill-opacity="1" d="M43,-3.103C42.256,-3.103,41.814,-3.368,41.511,-3.696L41.499,-8.376C41.827,-8.742,42.281,-8.994,43,-8.994C44.148,-8.994,44.943,-7.708,44.943,-6.055C44.943,-4.365,44.161,-3.103,43,-3.103ZM43.757,-11.795C42.521,-11.795,41.726,-11.215,41.284,-10.811L41.12,-11.593L38.345,-11.593L38.345,3.117L41.499,2.448L41.511,-1.122C41.965,-0.794,42.634,-0.327,43.744,-0.327C46.003,-0.327,48.059,-2.144,48.059,-6.143C48.046,-9.802,45.965,-11.795,43.757,-11.795Z" /></g><g id="Group 5"><path fill="#635bff" fill-opacity="1" d="M34.005,-12.539L37.172,-13.221L37.172,-15.782L34.005,-15.113L34.005,-12.539Z" /></g><g id="Group 4"><path fill="#635bff" fill-opacity="1" d="M34.005,-11.581L37.172,-11.581L37.172,-0.542L34.005,-0.542L34.005,-11.581Z" /></g><g id="Group 3"><path fill="#635bff" fill-opacity="1" d="M30.611,-10.647L30.41,-11.581L27.685,-11.581L27.685,-0.542L30.838,-0.542L30.838,-8.023C31.583,-8.994,32.844,-8.818,33.235,-8.679L33.235,-11.581C32.832,-11.732,31.356,-12.01,30.611,-10.647Z" /></g><g id="Group 2"><path fill="#635bff" fill-opacity="1" d="M24.304,-14.318L21.225,-13.662L21.213,-3.557C21.213,-1.69,22.613,-0.315,24.48,-0.315C25.515,-0.315,26.272,-0.504,26.688,-0.731L26.688,-3.292C26.284,-3.128,24.291,-2.548,24.291,-4.415L24.291,-8.894L26.688,-8.894L26.688,-11.581L24.291,-11.581L24.304,-14.318Z" /></g><g id="Group 1"><path fill="#635bff" fill-opacity="1" d="M15.775,-8.376C15.775,-8.868,16.179,-9.058,16.848,-9.058C17.807,-9.058,19.018,-8.767,19.976,-8.25L19.976,-11.215C18.929,-11.631,17.895,-11.795,16.848,-11.795C14.287,-11.795,12.584,-10.458,12.584,-8.225C12.584,-4.743,17.378,-5.298,17.378,-3.797C17.378,-3.216,16.873,-3.027,16.166,-3.027C15.119,-3.027,13.782,-3.456,12.722,-4.036L12.722,-1.034C13.896,-0.529,15.082,-0.315,16.166,-0.315C18.791,-0.315,20.595,-1.614,20.595,-3.872C20.582,-7.632,15.775,-6.963,15.775,-8.376Z" /></g></g></g></g></g></g></g></g></g></g></g><g transform="matrix(1.27,0,0,1.27,192.5,125.5)" id="Null 1"><g id="Card Null"><g transform="translate(-15,152)"><animateTransform repeatCount="indefinite" type="translate" attributeName="transform" dur="3s" begin="2.7s" calcMode="spline" values="-15 152; 45 64; 45 64; 45 95; 45 95; 45 349" keyTimes="0; 0.222; 0.333; 0.556; 0.778; 1" keySplines="0.57 0 0.43 1; 0 0 1 1; 0.79 0 0.21 1; 0 0 1 1; 0.27 0 0.2 1" fill="freeze" /><g transform="rotate(20)"><animateTransform repeatCount="indefinite" type="rotate" attributeName="transform" dur="0.667s" begin="3.7s" calcMode="spline" values="20; 40" keyTimes="0; 1" keySplines="0.79 0 0.21 1" fill="freeze" /><g transform="scale(1.005,1.005) translate(-50,-50)"><g id="Discover Card"><animate repeatCount="indefinite" begin="0.033s" calcMode="discrete" fill="freeze" dur="3.667s" values="visible; hidden" keyTimes="0; 1" attributeName="visibility" /><g transform="translate(85.916,22.183)"><animateTransform repeatCount="indefinite" type="translate" attributeName="transform" dur="2.667s" begin="0.033s" calcMode="spline" values="85.916 22.183; 86.942 25.003; 85.916 22.184; 85.916 22.184; 85.916 48.184" keyTimes="0; 0.25; 0.5; 0.75; 1" keySplines="0.333 0 0.667 1; 0.333 0 0.667 1; 0 0 1 1; 0.27 0 0.43 1" fill="freeze" /><g transform="rotate(0)"><animateTransform repeatCount="indefinite" type="rotate" attributeName="transform" dur="0.667s" begin="2.7s" calcMode="spline" values="0; -40" keyTimes="0; 1" keySplines="0.57 0 0.43 1" fill="freeze" /><g transform="scale(1.18,1.18)"><animateTransform repeatCount="indefinite" type="scale" attributeName="transform" dur="0.667s" begin="2.7s" calcMode="spline" values="1.18 1.18; 1 1" keyTimes="0; 1" keySplines="0.57 0 0.43 1" fill="freeze" /><g id="Group 2"><path fill="url(#null)" d="M58,87L-118,87C-124.6,87,-130,81.6,-130,75L-130,-23C-130,-29.6,-124.6,-35,-118,-35L58,-35C64.6,-35,70,-29.6,70,-23L70,75C70,81.6,64.6,87,58,87Z" /></g><g id="Group 1"><g id="Group 1"><g id="Group 3"><path fill="#777777" fill-opacity="1" d="M-97.647,29.06C-97.646,30.053,-98.441,30.858,-99.423,30.859L-115.429,30.877C-116.411,30.878,-117.208,30.075,-117.209,29.082L-117.222,18.295C-117.223,17.301,-116.427,16.496,-115.445,16.495L-99.439,16.477C-98.457,16.476,-97.66,17.279,-97.658,18.273L-97.647,29.06Z" /></g><g id="Group 2"><g id="Group 1"><path fill="url(#null)" d="M-97.647,28.733C-97.646,29.686,-98.417,30.459,-99.369,30.46L-115.066,30.478C-116.028,30.479,-116.81,29.697,-116.81,28.731L-116.822,18.245C-116.823,17.279,-116.044,16.496,-115.082,16.495L-99.402,16.477C-98.441,16.476,-97.659,17.258,-97.658,18.223L-97.647,28.733Z" /></g></g><g id="Group 1"><g id="Group 10"><g id="Group 1"><path fill="#777777" fill-opacity="1" d="M-110.825,25.672L-110.825,22.081L-110.825,22.081L-110.825,25.672L-111.104,25.672L-110.825,25.672Z" /></g></g><g id="Group 9"><g id="Group 1"><path fill="#777777" fill-opacity="1" d="M-104.042,25.672L-104.042,22.081L-103.643,22.081L-103.643,25.672L-104.057,25.672L-104.042,25.672Z" /></g></g><g id="Group 8"><g id="Group 1"><path fill="#777777" fill-opacity="1" d="M-117.209,25.672L-117.209,25.273L-110.825,25.273L-110.825,25.672L-117.162,25.672L-117.209,25.672Z" /></g></g><g id="Group 7"><g id="Group 1"><path fill="#777777" fill-opacity="1" d="M-117.209,22.081L-117.209,21.682L-110.825,21.682L-110.825,22.081L-117.162,22.081L-117.209,22.081Z" /></g></g><g id="Group 6"><g id="Group 1"><path fill="#777777" fill-opacity="1" d="M-104.042,22.081L-104.042,21.682L-97.658,21.682L-97.658,22.081L-104.013,22.081L-104.042,22.081Z" /></g></g><g id="Group 5"><g id="Group 1"><path fill="#777777" fill-opacity="1" d="M-104.042,25.672L-104.042,25.273L-97.658,25.273L-97.658,25.672L-104.013,25.672L-104.042,25.672Z" /></g></g><g id="Group 4"><g id="Group 1"><g id="Group 1"><path fill="#777777" fill-opacity="1" d="M-115.163,16.734L-115.163,16.734L-115.163,16.734L-115.163,16.734ZM-114.815,22.081L-109.432,22.081C-109.412,21.967,-109.335,21.895,-109.286,21.834C-109.212,21.743,-109.118,21.632,-109.003,21.436L-109.003,21.436C-108.775,21.045,-108.54,20.379,-108.541,19.278L-108.541,19.278C-108.544,17.729,-109.068,17.062,-109.32,16.824L-109.32,16.824C-109.376,16.771,-109.417,16.741,-109.438,16.894L-109.438,16.894L-115.214,16.894L-115.214,16.495L-109.395,16.495L-109.377,16.536C-109.358,16.544,-108.367,17.138,-108.368,19.278L-108.368,19.278C-108.362,21.549,-109.35,22.115,-109.372,22.122L-109.372,22.122L-109.39,22.081L-114.815,22.081L-114.815,21.984L-114.815,22.081Z" /></g></g></g><g id="Group 3"><g id="Group 1"><g id="Group 1"><path fill="#777777" fill-opacity="1" d="M-99.677,16.734L-99.677,16.734L-99.677,16.734L-99.677,16.734ZM-105.408,21.979C-105.428,21.967,-105.505,21.895,-105.554,21.834C-105.629,21.743,-105.723,21.632,-105.838,21.436L-105.838,21.436C-106.066,21.045,-106.3,20.379,-106.299,19.278L-106.299,19.278C-106.296,17.729,-105.772,17.062,-105.52,16.824L-105.52,16.824C-105.464,16.771,-105.424,16.741,-105.403,16.495L-105.403,16.495L-99.653,16.495L-99.653,16.495L-105.445,16.495L-105.463,16.536C-105.483,16.544,-106.473,17.138,-106.473,19.278L-106.473,19.278C-106.478,21.549,-105.49,22.115,-105.468,22.122L-105.468,22.122L-105.45,22.132L-105.408,21.979Z" /></g></g></g><g id="Group 2"><g id="Group 1"><g id="Group 1"><path fill="#777777" fill-opacity="1" d="M-115.169,25.71L-115.219,25.687L-115.162,25.658L-115.169,25.71ZM-115.214,30.46L-109.091,30.453C-109.069,30.441,-108.987,30.37,-108.934,30.311C-108.855,30.221,-108.754,30.112,-108.631,29.919L-108.631,29.919C-108.387,29.534,-108.137,28.88,-108.137,27.797L-108.137,27.797C-108.141,26.273,-108.701,25.588,-108.97,25.354L-108.97,25.354C-109.03,25.302,-109.046,25.287,-109.068,25.273L-109.412,25.273L-115.14,25.273L-115.163,25.672L-109.408,25.666L-109.39,25.675C-109.37,25.682,-108.372,26.232,-108.373,28.215L-108.373,28.215C-108.367,30.319,-109.363,30.844,-109.385,30.85L-109.385,30.85L-109.403,30.859L-115.214,30.866L-115.214,30.458L-115.214,30.46Z" /></g></g></g><g id="Group 1"><g id="Group 1"><g id="Group 1"><path fill="#777777" fill-opacity="1" d="M-99.672,25.71L-99.622,25.687L-99.679,25.658L-99.672,25.71ZM-99.653,30.46L-105.777,30.453C-105.798,30.441,-105.881,30.37,-105.933,30.311C-106.013,30.221,-106.113,30.112,-106.236,29.919L-106.236,29.919C-106.48,29.534,-106.731,28.88,-106.73,27.797L-106.73,27.797C-106.727,26.273,-106.167,25.588,-105.897,25.354L-105.897,25.354C-105.837,25.302,-105.822,25.287,-105.8,25.273L-105.429,25.273L-99.701,25.273L-99.678,25.672L-105.46,25.666L-105.478,25.675C-105.498,25.682,-106.496,26.232,-106.495,28.215L-106.495,28.215C-106.501,30.319,-105.505,30.844,-105.482,30.85L-105.482,30.85L-105.465,30.859L-99.653,30.866L-99.653,30.458L-99.653,30.46Z" /></g></g></g></g></g><g id="Wifi Symbol"><g id="Group 4"><g id="Group 1"><path fill="#ffffff" fill-opacity="1" d="M-90.17,20.527C-90.021,20.527,-89.872,20.578,-89.751,20.682C-88.849,21.455,-88.332,22.579,-88.332,23.766C-88.332,25.035,-88.909,26.207,-89.915,26.983C-90.197,27.2,-90.601,27.148,-90.818,26.866C-91.035,26.584,-90.983,26.18,-90.701,25.962C-90.014,25.433,-89.62,24.632,-89.62,23.766C-89.62,22.956,-89.973,22.188,-90.589,21.66C-90.859,21.429,-90.891,21.022,-90.659,20.752C-90.532,20.603,-90.351,20.527,-90.17,20.527Z" /></g></g><g id="Group 3"><g id="Group 1"><path fill="#ffffff" fill-opacity="1" d="M-88.24,19.086C-88.072,19.086,-87.904,19.151,-87.778,19.281C-86.604,20.489,-85.957,22.081,-85.957,23.766C-85.957,25.44,-86.597,27.025,-87.758,28.23C-88.005,28.487,-88.413,28.494,-88.669,28.247C-88.925,28,-88.933,27.593,-88.686,27.336C-87.757,26.373,-87.246,25.105,-87.246,23.766C-87.246,22.419,-87.763,21.145,-88.701,20.179C-88.95,19.924,-88.944,19.516,-88.689,19.268C-88.563,19.146,-88.401,19.086,-88.24,19.086Z" /></g></g><g id="Group 2"><g id="Group 1"><path fill="#ffffff" fill-opacity="1" d="M-86.059,17.455C-85.882,17.455,-85.706,17.527,-85.579,17.669C-84.077,19.347,-83.249,21.512,-83.249,23.766C-83.249,25.922,-84.014,28.015,-85.403,29.66C-85.632,29.932,-86.039,29.966,-86.311,29.737C-86.583,29.507,-86.617,29.101,-86.388,28.829C-85.195,27.416,-84.538,25.618,-84.538,23.766C-84.538,21.83,-85.248,19.97,-86.539,18.529C-86.776,18.264,-86.754,17.856,-86.488,17.619C-86.365,17.509,-86.212,17.455,-86.059,17.455Z" /></g></g><g id="Group 1"><g id="Group 1"><path fill="#ffffff" fill-opacity="1" d="M-83.853,15.801C-83.671,15.801,-83.491,15.877,-83.364,16.025C-81.517,18.177,-80.5,20.926,-80.5,23.766C-80.5,26.461,-81.379,29.003,-83.043,31.117C-83.263,31.396,-83.668,31.445,-83.948,31.224C-84.228,31.004,-84.276,30.599,-84.056,30.32C-82.572,28.436,-81.788,26.169,-81.788,23.766C-81.788,21.234,-82.695,18.783,-84.341,16.864C-84.573,16.594,-84.542,16.188,-84.272,15.956C-84.151,15.852,-84.001,15.801,-83.853,15.801Z" /></g></g></g></g><g id="Page-1"><g id="Artboard-Copy"><g id="Discover-Card"><g id="Shape"><path fill="#ffffff" fill-opacity="1" d="M2.415,-4.599C1.844,-4.101,1.13,-3.885,-0.045,-3.885L-0.509,-3.885L-0.509,-9.948L-0.045,-9.948C1.097,-9.948,1.81,-9.735,2.415,-9.198C3.055,-8.627,3.413,-7.771,3.413,-6.915C3.411,-6.025,3.055,-5.136,2.415,-4.599L2.415,-4.599ZM0.344,-11.481L-2.294,-11.481L-2.294,-2.318L0.308,-2.318C1.699,-2.318,2.697,-2.64,3.59,-3.387C4.625,-4.243,5.265,-5.561,5.265,-6.918C5.265,-9.592,3.234,-11.481,0.344,-11.481L0.344,-11.481Z" /></g><g id="Rectangle-path"><path fill="#ffffff" fill-opacity="1" d="M6.085,-11.481L7.867,-11.481L7.867,-2.318L6.085,-2.318L6.085,-11.481Z" /></g><g id="Shape"><path fill="#ffffff" fill-opacity="1" d="M12.254,-7.987C11.185,-8.378,10.864,-8.627,10.864,-9.128C10.864,-9.699,11.434,-10.127,12.184,-10.127C12.718,-10.127,13.146,-9.914,13.647,-9.377L14.573,-10.625C13.79,-11.302,12.897,-11.66,11.862,-11.66C10.223,-11.66,9.009,-10.518,9.009,-9.022C9.009,-7.737,9.579,-7.097,11.255,-6.49C11.969,-6.241,12.324,-6.062,12.503,-5.955C12.858,-5.743,13.037,-5.385,13.037,-4.993C13.037,-4.243,12.43,-3.709,11.647,-3.709C10.791,-3.709,10.114,-4.137,9.686,-4.92L8.544,-3.852C9.364,-2.64,10.363,-2.106,11.717,-2.106C13.572,-2.106,14.89,-3.353,14.89,-5.136C14.892,-6.56,14.288,-7.237,12.254,-7.987L12.254,-7.987Z" /></g><g id="Shape"><path fill="#ffffff" fill-opacity="1" d="M15.463,-6.881C15.463,-4.171,17.567,-2.103,20.311,-2.103C21.095,-2.103,21.738,-2.246,22.558,-2.637L22.558,-4.741C21.845,-4.028,21.204,-3.743,20.384,-3.743C18.566,-3.743,17.318,-5.063,17.318,-6.915C17.318,-8.661,18.638,-10.054,20.314,-10.054C21.17,-10.054,21.811,-9.769,22.56,-9.019L22.56,-11.123C21.777,-11.515,21.134,-11.694,20.35,-11.694C17.639,-11.696,15.463,-9.556,15.463,-6.881L15.463,-6.881Z" /></g><g id="Shape"><path fill="#ffffff" fill-opacity="1" d="M37.036,-5.312L34.61,-11.481L32.649,-11.481L36.535,-2.067L37.5,-2.067L41.456,-11.481L39.531,-11.481L37.036,-5.312Z" /></g><g id="Shape"><path fill="#ffffff" fill-opacity="1" d="M42.276,-2.318L47.34,-2.318L47.34,-3.852L44.061,-3.852L44.061,-6.347L47.233,-6.347L47.233,-7.916L44.061,-7.916L44.061,-9.948L47.34,-9.948L47.34,-11.481L42.276,-11.481L42.276,-2.318Z" /></g><g id="Shape"><path fill="#ffffff" fill-opacity="1" d="M50.834,-7.273L50.299,-7.273L50.299,-10.054L50.834,-10.054C51.939,-10.054,52.546,-9.59,52.546,-8.7C52.582,-7.774,51.975,-7.273,50.834,-7.273L50.834,-7.273ZM54.434,-8.773C54.434,-10.485,53.257,-11.483,51.189,-11.483L48.517,-11.483L48.517,-2.321L50.299,-2.321L50.299,-5.989L50.548,-5.989L53.008,-2.316L55.218,-2.316L52.331,-6.168C53.687,-6.453,54.434,-7.38,54.434,-8.773L54.434,-8.773Z" /></g><g id="Group 6"><g id="Oval" transform="matrix(1,0,0,1,0,0)" opacity="0.65"><path fill="url(#null)" d="M28.192,-1.996C30.869,-1.996,33.04,-4.167,33.04,-6.844C33.04,-9.521,30.872,-11.695,28.192,-11.695C25.512,-11.695,23.344,-9.524,23.344,-6.847C23.344,-4.17,25.515,-1.996,28.192,-1.996Z" /></g><g id="Oval"><path fill="url(#null)" d="M28.192,-11.695C30.87,-11.695,33.04,-9.524,33.04,-6.847C33.04,-4.169,30.87,-1.998,28.192,-1.998C25.514,-1.998,23.344,-4.169,23.344,-6.847C23.344,-9.524,25.514,-11.695,28.192,-11.695Z" /></g></g><g id="Group 5"><g id="Shape"><path fill="#ffffff" fill-opacity="1" d="M55.328,-10.982L55.328,-10.982L55.291,-11.194L55.328,-11.194C55.434,-11.194,55.47,-11.158,55.47,-11.088C55.47,-11.018,55.398,-10.982,55.328,-10.982L55.328,-10.982ZM55.683,-11.088C55.683,-11.267,55.577,-11.337,55.361,-11.337L55.076,-11.337L55.076,-10.481L55.289,-10.481L55.289,-10.839L55.538,-10.517L55.787,-10.517L55.502,-10.873C55.613,-10.875,55.683,-10.982,55.683,-11.088L55.683,-11.088Z" /></g><g id="Shape"><path fill="#ffffff" fill-opacity="1" d="M55.398,-10.341C55.076,-10.341,54.791,-10.626,54.791,-10.948C54.791,-11.303,55.04,-11.555,55.398,-11.555C55.719,-11.555,55.968,-11.27,55.968,-10.948C55.968,-10.59,55.719,-10.341,55.398,-10.341L55.398,-10.341ZM55.398,-11.695C54.97,-11.695,54.648,-11.373,54.648,-10.945C54.648,-10.517,54.97,-10.196,55.398,-10.196C55.789,-10.196,56.147,-10.517,56.147,-10.945C56.111,-11.34,55.789,-11.695,55.398,-11.695L55.398,-11.695Z" /></g></g></g></g></g><g id="Page-1"><g id="Artboard-Copy"><g id="Discover-Card"><g id="Group 4"><g id="Group 2"><path fill="url(#null)" d="M70,19.342L70,37.455C67.132,37.258,64.635,35.723,63.117,33.475C62.954,33.235,62.802,32.985,62.662,32.729C61.962,31.441,61.566,29.965,61.566,28.399C61.566,26.832,61.962,25.356,62.662,24.068C62.802,23.812,62.954,23.562,63.117,23.322C64.635,21.071,67.132,19.54,70,19.342Z" /></g><g id="Group 1" transform="matrix(1,0,0,1,0,0)" opacity="0.65"><path fill="url(#null)" d="M70,19.342L70,37.455C67.132,37.258,64.635,35.723,63.117,33.475C62.954,33.235,62.802,32.985,62.662,32.729C61.962,31.441,61.566,29.965,61.566,28.399C61.566,26.832,61.962,25.356,62.662,24.068C62.802,23.812,62.954,23.562,63.117,23.322C64.635,21.071,67.132,19.54,70,19.342Z" /></g></g></g></g></g></g></g></g></g></g></g></g></g></g><g transform="matrix(1.27,0,0,1.27,192.5,125.5)" id="Null 1"><g id="Card Null"><g transform="translate(-15,152)"><animateTransform repeatCount="indefinite" type="translate" attributeName="transform" dur="3s" begin="2.7s" calcMode="spline" values="-15 152; 45 64; 45 64; 45 95; 45 95; 45 349" keyTimes="0; 0.222; 0.333; 0.556; 0.778; 1" keySplines="0.57 0 0.43 1; 0 0 1 1; 0.79 0 0.21 1; 0 0 1 1; 0.27 0 0.2 1" fill="freeze" /><g transform="rotate(20)"><animateTransform repeatCount="indefinite" type="rotate" attributeName="transform" dur="0.667s" begin="3.7s" calcMode="spline" values="20; 40" keyTimes="0; 1" keySplines="0.79 0 0.21 1" fill="freeze" /><g transform="scale(1.005,1.005) translate(-50,-50)" /></g></g></g></g><g transform="matrix(1.27,0,0,1.27,192.5,125.5)" id="Null 1"><g id="Card Null"><g transform="translate(-15,152)"><animateTransform repeatCount="indefinite" type="translate" attributeName="transform" dur="3s" begin="2.7s" calcMode="spline" values="-15 152; 45 64; 45 64; 45 95; 45 95; 45 349" keyTimes="0; 0.222; 0.333; 0.556; 0.778; 1" keySplines="0.57 0 0.43 1; 0 0 1 1; 0.79 0 0.21 1; 0 0 1 1; 0.27 0 0.2 1" fill="freeze" /><g transform="rotate(20)"><animateTransform repeatCount="indefinite" type="rotate" attributeName="transform" dur="0.667s" begin="3.7s" calcMode="spline" values="20; 40" keyTimes="0; 1" keySplines="0.79 0 0.21 1" fill="freeze" /><g transform="scale(1.005,1.005) translate(-50,-50)"><g visibility="hidden" id="Visa Logo"><animate repeatCount="indefinite" begin="2.7s" calcMode="discrete" fill="freeze" dur="1s" values="visible; hidden" keyTimes="0; 1" attributeName="visibility" /><g transform="translate(412.228,155.208)"><animateTransform repeatCount="indefinite" type="translate" attributeName="transform" dur="0.667s" begin="2.7s" calcMode="spline" values="412.228 155.208; 80.12 87.726" keyTimes="0; 1" keySplines="0.57 0 0.43 1" fill="freeze" /><g transform="rotate(-46)"><animateTransform repeatCount="indefinite" type="rotate" attributeName="transform" dur="0.667s" begin="2.7s" calcMode="spline" values="-46; -40" keyTimes="0; 1" keySplines="0.57 0 0.43 1" fill="freeze" /><g transform="scale(1.59,1.59)"><animateTransform repeatCount="indefinite" type="scale" attributeName="transform" dur="0.667s" begin="2.7s" calcMode="spline" values="1.59 1.59; 1 1" keyTimes="0; 1" keySplines="0.57 0 0.43 1" fill="freeze" /><g transform="translate(-254,-170)"><g opacity="1"><animate repeatCount="indefinite" attributeName="opacity" dur="10.0666s" begin="0s" calcMode="spline" values="0; 1; 1; 0" keyTimes="0; 0.003; 0.997; 1" keySplines="0 0 1 1; 0 0 1 1; 0 0 1 1" fill="freeze" /><g id="Layer 5" transform="translate(271,194)"><g id="Group 3"><path fill="url(#null)" d="M71,37L-105,37C-111.6,37,-117,31.6,-117,25L-117,-73C-117,-79.6,-111.6,-85,-105,-85L71,-85C77.6,-85,83,-79.6,83,-73L83,25C83,31.6,77.6,37,71,37Z" /></g><g id="Group 2"><g id="Group 1"><g id="Group 3"><path fill="#777777" fill-opacity="1" d="M-84.647,-20.94C-84.646,-19.947,-85.441,-19.142,-86.423,-19.141L-102.429,-19.123C-103.411,-19.122,-104.208,-19.925,-104.209,-20.918L-104.222,-31.705C-104.223,-32.699,-103.427,-33.504,-102.445,-33.505L-86.439,-33.523C-85.457,-33.524,-84.66,-32.721,-84.658,-31.727L-84.647,-20.94Z" /></g><g id="Group 2"><g id="Group 1"><path fill="url(#null)" d="M-84.647,-21.267C-84.646,-20.314,-85.417,-19.541,-86.369,-19.54L-102.066,-19.522C-103.028,-19.521,-103.81,-20.303,-103.81,-21.269L-103.822,-31.755C-103.823,-32.721,-103.044,-33.504,-102.082,-33.505L-86.402,-33.523C-85.441,-33.524,-84.659,-32.742,-84.658,-31.777L-84.647,-21.267Z" /></g></g><g id="Group 1"><g id="Group 10"><g id="Group 1"><path fill="#777777" fill-opacity="1" d="M-97.825,-24.328L-97.825,-27.919L-97.825,-27.919L-97.825,-24.328L-98.104,-24.328L-97.825,-24.328Z" /></g></g><g id="Group 9"><g id="Group 1"><path fill="#777777" fill-opacity="1" d="M-91.042,-24.328L-91.042,-27.919L-90.643,-27.919L-90.643,-24.328L-91.057,-24.328L-91.042,-24.328Z" /></g></g><g id="Group 8"><g id="Group 1"><path fill="#777777" fill-opacity="1" d="M-104.209,-24.328L-104.209,-24.727L-97.825,-24.727L-97.825,-24.328L-104.162,-24.328L-104.209,-24.328Z" /></g></g><g id="Group 7"><g id="Group 1"><path fill="#777777" fill-opacity="1" d="M-104.209,-27.919L-104.209,-28.318L-97.825,-28.318L-97.825,-27.919L-104.162,-27.919L-104.209,-27.919Z" /></g></g><g id="Group 6"><g id="Group 1"><path fill="#777777" fill-opacity="1" d="M-91.042,-27.919L-91.042,-28.318L-84.658,-28.318L-84.658,-27.919L-91.013,-27.919L-91.042,-27.919Z" /></g></g><g id="Group 5"><g id="Group 1"><path fill="#777777" fill-opacity="1" d="M-91.042,-24.328L-91.042,-24.727L-84.658,-24.727L-84.658,-24.328L-91.013,-24.328L-91.042,-24.328Z" /></g></g><g id="Group 4"><g id="Group 1"><g id="Group 1"><path fill="#777777" fill-opacity="1" d="M-102.163,-33.266L-102.163,-33.266L-102.163,-33.266L-102.163,-33.266ZM-101.815,-27.919L-96.432,-27.919C-96.412,-28.033,-96.335,-28.105,-96.286,-28.166C-96.212,-28.257,-96.118,-28.368,-96.003,-28.564L-96.003,-28.564C-95.775,-28.955,-95.54,-29.621,-95.541,-30.722L-95.541,-30.722C-95.544,-32.271,-96.068,-32.938,-96.32,-33.176L-96.32,-33.176C-96.376,-33.229,-96.417,-33.259,-96.438,-33.106L-96.438,-33.106L-102.214,-33.106L-102.214,-33.505L-96.395,-33.505L-96.377,-33.464C-96.358,-33.456,-95.367,-32.862,-95.368,-30.722L-95.368,-30.722C-95.362,-28.451,-96.35,-27.885,-96.372,-27.878L-96.372,-27.878L-96.39,-27.919L-101.815,-27.919L-101.815,-28.016L-101.815,-27.919Z" /></g></g></g><g id="Group 3"><g id="Group 1"><g id="Group 1"><path fill="#777777" fill-opacity="1" d="M-86.677,-33.266L-86.677,-33.266L-86.677,-33.266L-86.677,-33.266ZM-92.408,-28.021C-92.428,-28.033,-92.505,-28.105,-92.554,-28.166C-92.629,-28.257,-92.723,-28.368,-92.838,-28.564L-92.838,-28.564C-93.066,-28.955,-93.3,-29.621,-93.299,-30.722L-93.299,-30.722C-93.296,-32.271,-92.772,-32.938,-92.52,-33.176L-92.52,-33.176C-92.464,-33.229,-92.424,-33.259,-92.403,-33.505L-92.403,-33.505L-86.653,-33.505L-86.653,-33.505L-92.445,-33.505L-92.463,-33.464C-92.483,-33.456,-93.473,-32.862,-93.473,-30.722L-93.473,-30.722C-93.478,-28.451,-92.49,-27.885,-92.468,-27.878L-92.468,-27.878L-92.45,-27.868L-92.408,-28.021Z" /></g></g></g><g id="Group 2"><g id="Group 1"><g id="Group 1"><path fill="#777777" fill-opacity="1" d="M-102.169,-24.29L-102.219,-24.313L-102.162,-24.342L-102.169,-24.29ZM-102.214,-19.54L-96.091,-19.547C-96.069,-19.559,-95.987,-19.63,-95.934,-19.689C-95.855,-19.779,-95.754,-19.888,-95.631,-20.081L-95.631,-20.081C-95.387,-20.466,-95.137,-21.12,-95.137,-22.203L-95.137,-22.203C-95.141,-23.727,-95.701,-24.412,-95.97,-24.646L-95.97,-24.646C-96.03,-24.698,-96.046,-24.713,-96.068,-24.727L-96.412,-24.727L-102.14,-24.727L-102.163,-24.328L-96.408,-24.334L-96.39,-24.325C-96.37,-24.318,-95.372,-23.768,-95.373,-21.785L-95.373,-21.785C-95.367,-19.681,-96.363,-19.156,-96.385,-19.15L-96.385,-19.15L-96.403,-19.141L-102.214,-19.134L-102.214,-19.542L-102.214,-19.54Z" /></g></g></g><g id="Group 1"><g id="Group 1"><g id="Group 1"><path fill="#777777" fill-opacity="1" d="M-86.672,-24.29L-86.622,-24.313L-86.679,-24.342L-86.672,-24.29ZM-86.653,-19.54L-92.777,-19.547C-92.798,-19.559,-92.881,-19.63,-92.933,-19.689C-93.013,-19.779,-93.113,-19.888,-93.236,-20.081L-93.236,-20.081C-93.48,-20.466,-93.731,-21.12,-93.73,-22.203L-93.73,-22.203C-93.727,-23.727,-93.167,-24.412,-92.897,-24.646L-92.897,-24.646C-92.837,-24.698,-92.822,-24.713,-92.8,-24.727L-92.429,-24.727L-86.701,-24.727L-86.678,-24.328L-92.46,-24.334L-92.478,-24.325C-92.498,-24.318,-93.496,-23.768,-93.495,-21.785L-93.495,-21.785C-93.501,-19.681,-92.505,-19.156,-92.482,-19.15L-92.482,-19.15L-92.465,-19.141L-86.653,-19.134L-86.653,-19.542L-86.653,-19.54Z" /></g></g></g></g></g><g id="Wifi Symbol"><g id="Group 4"><g id="Group 1"><path fill="#ffffff" fill-opacity="1" d="M-77.17,-29.473C-77.021,-29.473,-76.872,-29.422,-76.751,-29.318C-75.849,-28.545,-75.332,-27.421,-75.332,-26.234C-75.332,-24.965,-75.909,-23.793,-76.915,-23.017C-77.197,-22.8,-77.601,-22.852,-77.818,-23.134C-78.035,-23.416,-77.983,-23.82,-77.701,-24.038C-77.014,-24.567,-76.62,-25.368,-76.62,-26.234C-76.62,-27.044,-76.973,-27.812,-77.589,-28.34C-77.859,-28.571,-77.891,-28.978,-77.659,-29.248C-77.532,-29.397,-77.351,-29.473,-77.17,-29.473Z" /></g></g><g id="Group 3"><g id="Group 1"><path fill="#ffffff" fill-opacity="1" d="M-75.24,-30.914C-75.072,-30.914,-74.904,-30.849,-74.778,-30.719C-73.604,-29.511,-72.957,-27.919,-72.957,-26.234C-72.957,-24.56,-73.597,-22.975,-74.758,-21.77C-75.005,-21.513,-75.413,-21.506,-75.669,-21.753C-75.925,-22,-75.933,-22.407,-75.686,-22.664C-74.757,-23.627,-74.246,-24.895,-74.246,-26.234C-74.246,-27.581,-74.763,-28.855,-75.701,-29.821C-75.95,-30.076,-75.944,-30.484,-75.689,-30.732C-75.563,-30.854,-75.401,-30.914,-75.24,-30.914Z" /></g></g><g id="Group 2"><g id="Group 1"><path fill="#ffffff" fill-opacity="1" d="M-73.059,-32.545C-72.882,-32.545,-72.706,-32.473,-72.579,-32.331C-71.077,-30.653,-70.249,-28.488,-70.249,-26.234C-70.249,-24.078,-71.014,-21.985,-72.403,-20.34C-72.632,-20.068,-73.039,-20.034,-73.311,-20.263C-73.583,-20.493,-73.617,-20.899,-73.388,-21.171C-72.195,-22.584,-71.538,-24.382,-71.538,-26.234C-71.538,-28.17,-72.248,-30.03,-73.539,-31.471C-73.776,-31.736,-73.754,-32.144,-73.488,-32.381C-73.365,-32.491,-73.212,-32.545,-73.059,-32.545Z" /></g></g><g id="Group 1"><g id="Group 1"><path fill="#ffffff" fill-opacity="1" d="M-70.853,-34.199C-70.671,-34.199,-70.491,-34.123,-70.364,-33.975C-68.517,-31.823,-67.5,-29.074,-67.5,-26.234C-67.5,-23.539,-68.379,-20.997,-70.043,-18.883C-70.263,-18.604,-70.668,-18.555,-70.948,-18.776C-71.228,-18.996,-71.276,-19.401,-71.056,-19.68C-69.572,-21.564,-68.788,-23.831,-68.788,-26.234C-68.788,-28.766,-69.695,-31.217,-71.341,-33.136C-71.573,-33.406,-71.542,-33.812,-71.272,-34.044C-71.151,-34.148,-71.001,-34.199,-70.853,-34.199Z" /></g></g></g></g><g id="Group 1"><path fill="#f9f9f9" fill-opacity="1" d="M64.819,-46L25.117,-46C23.403,-46,22,-47.403,22,-49.117L22,-61.778C22,-63.492,23.403,-64.895,25.117,-64.895L64.819,-64.895C66.533,-64.895,67.936,-63.492,67.936,-61.778L67.936,-49.117C67.936,-47.403,66.533,-46,64.819,-46Z" /></g></g></g><g id="Visa Logo 2" transform="matrix(0.46,0,0,0.46,248.374,104.404)"><g id="Visa Logo 2"><path fill="#1434cb" fill-opacity="1" d="M179.338,68.217L181.524,78.448L175.663,78.448L179.338,68.217L179.338,68.217ZM178.378,60.833C176.69,60.833,175.796,61.727,175.133,63.317L164.803,88.083L172.187,88.083L173.61,83.945L182.616,83.945L183.477,88.083L190,88.083L184.338,60.833L178.378,60.833L178.378,60.833ZM139.109,60.833L133.315,88.083L140.367,88.083L146.128,60.833L139.109,60.833L139.109,60.833ZM103.317,60.833L103.151,61.694C103.151,61.694,105.734,62.158,108.084,63.118C111.098,64.211,111.296,64.84,111.826,66.793L117.355,88.083L124.772,88.083L136.129,60.833L128.745,60.833L121.428,79.375L118.448,63.648C118.183,61.86,116.793,60.833,115.071,60.833L103.317,60.833ZM159.737,60.403C153.578,60.403,148.049,63.615,148.049,69.508C148.049,76.296,157.817,76.76,157.817,80.137C157.817,81.561,156.161,82.852,153.38,82.852C149.406,82.852,146.426,81.064,146.426,81.064L145.168,87.024C145.168,87.024,148.579,88.547,153.148,88.547C159.902,88.547,165.2,85.203,165.2,79.177C165.2,72.025,155.399,71.561,155.399,68.416C155.399,67.29,156.757,66.065,159.538,66.065C162.684,66.065,165.266,67.356,165.266,67.356L166.525,61.595C166.491,61.595,163.677,60.403,159.737,60.403L159.737,60.403Z" /></g></g></g></g></g></g></g></g></g></g></g></g><g transform="matrix(1.27,0,0,1.27,192.5,125.5)" id="Null 1"><g id="Card Null"><g transform="translate(-15,152)"><animateTransform repeatCount="indefinite" type="translate" attributeName="transform" dur="3s" begin="2.7s" calcMode="spline" values="-15 152; 45 64; 45 64; 45 95; 45 95; 45 349" keyTimes="0; 0.222; 0.333; 0.556; 0.778; 1" keySplines="0.57 0 0.43 1; 0 0 1 1; 0.79 0 0.21 1; 0 0 1 1; 0.27 0 0.2 1" fill="freeze" /><g transform="rotate(20)"><animateTransform repeatCount="indefinite" type="rotate" attributeName="transform" dur="0.667s" begin="3.7s" calcMode="spline" values="20; 40" keyTimes="0; 1" keySplines="0.79 0 0.21 1" fill="freeze" /><g transform="scale(1.005,1.005) translate(-50,-50)"><g visibility="hidden" id="AMerican Express Card"><animate repeatCount="indefinite" begin="2.767s" calcMode="discrete" fill="freeze" dur="0.933s" values="visible; hidden" keyTimes="0; 1" attributeName="visibility" /><g transform="translate(412.228,155.208)"><animateTransform repeatCount="indefinite" type="translate" attributeName="transform" dur="0.667s" begin="2.767s" calcMode="spline" values="412.228 155.208; 80.12 87.726" keyTimes="0; 1" keySplines="0.57 0 0.43 1" fill="freeze" /><g transform="rotate(-46)"><animateTransform repeatCount="indefinite" type="rotate" attributeName="transform" dur="0.667s" begin="2.767s" calcMode="spline" values="-46; -40" keyTimes="0; 1" keySplines="0.57 0 0.43 1" fill="freeze" /><g transform="scale(1.44,1.44)"><animateTransform repeatCount="indefinite" type="scale" attributeName="transform" dur="0.667s" begin="2.767s" calcMode="spline" values="1.44 1.44; 1 1" keyTimes="0; 1" keySplines="0.57 0 0.43 1" fill="freeze" /><g transform="translate(30,-26)"><g id="Group 3"><path fill="#023685" fill-opacity="1" d="M58,87L-118,87C-124.6,87,-130,81.6,-130,75L-130,-23C-130,-29.6,-124.6,-35,-118,-35L58,-35C64.6,-35,70,-29.6,70,-23L70,75C70,81.6,64.6,87,58,87Z" /></g><g id="Group 2"><g id="Group 1"><g id="Group 3"><path fill="#777777" fill-opacity="1" d="M-97.647,29.06C-97.646,30.053,-98.441,30.858,-99.423,30.859L-115.429,30.877C-116.411,30.878,-117.208,30.075,-117.209,29.082L-117.222,18.295C-117.223,17.301,-116.427,16.496,-115.445,16.495L-99.439,16.477C-98.457,16.476,-97.66,17.279,-97.658,18.273L-97.647,29.06Z" /></g><g id="Group 2"><g id="Group 1"><path fill="url(#null)" d="M-97.647,28.733C-97.646,29.686,-98.417,30.459,-99.369,30.46L-115.066,30.478C-116.028,30.479,-116.81,29.697,-116.81,28.731L-116.822,18.245C-116.823,17.279,-116.044,16.496,-115.082,16.495L-99.402,16.477C-98.441,16.476,-97.659,17.258,-97.658,18.223L-97.647,28.733Z" /></g></g><g id="Group 1"><g id="Group 10"><g id="Group 1"><path fill="#777777" fill-opacity="1" d="M-110.825,25.672L-110.825,22.081L-110.825,22.081L-110.825,25.672L-111.104,25.672L-110.825,25.672Z" /></g></g><g id="Group 9"><g id="Group 1"><path fill="#777777" fill-opacity="1" d="M-104.042,25.672L-104.042,22.081L-103.643,22.081L-103.643,25.672L-104.057,25.672L-104.042,25.672Z" /></g></g><g id="Group 8"><g id="Group 1"><path fill="#777777" fill-opacity="1" d="M-117.209,25.672L-117.209,25.273L-110.825,25.273L-110.825,25.672L-117.162,25.672L-117.209,25.672Z" /></g></g><g id="Group 7"><g id="Group 1"><path fill="#777777" fill-opacity="1" d="M-117.209,22.081L-117.209,21.682L-110.825,21.682L-110.825,22.081L-117.162,22.081L-117.209,22.081Z" /></g></g><g id="Group 6"><g id="Group 1"><path fill="#777777" fill-opacity="1" d="M-104.042,22.081L-104.042,21.682L-97.658,21.682L-97.658,22.081L-104.013,22.081L-104.042,22.081Z" /></g></g><g id="Group 5"><g id="Group 1"><path fill="#777777" fill-opacity="1" d="M-104.042,25.672L-104.042,25.273L-97.658,25.273L-97.658,25.672L-104.013,25.672L-104.042,25.672Z" /></g></g><g id="Group 4"><g id="Group 1"><g id="Group 1"><path fill="#777777" fill-opacity="1" d="M-115.163,16.734L-115.163,16.734L-115.163,16.734L-115.163,16.734ZM-114.815,22.081L-109.432,22.081C-109.412,21.967,-109.335,21.895,-109.286,21.834C-109.212,21.743,-109.118,21.632,-109.003,21.436L-109.003,21.436C-108.775,21.045,-108.54,20.379,-108.541,19.278L-108.541,19.278C-108.544,17.729,-109.068,17.062,-109.32,16.824L-109.32,16.824C-109.376,16.771,-109.417,16.741,-109.438,16.894L-109.438,16.894L-115.214,16.894L-115.214,16.495L-109.395,16.495L-109.377,16.536C-109.358,16.544,-108.367,17.138,-108.368,19.278L-108.368,19.278C-108.362,21.549,-109.35,22.115,-109.372,22.122L-109.372,22.122L-109.39,22.081L-114.815,22.081L-114.815,21.984L-114.815,22.081Z" /></g></g></g><g id="Group 3"><g id="Group 1"><g id="Group 1"><path fill="#777777" fill-opacity="1" d="M-99.677,16.734L-99.677,16.734L-99.677,16.734L-99.677,16.734ZM-105.408,21.979C-105.428,21.967,-105.505,21.895,-105.554,21.834C-105.629,21.743,-105.723,21.632,-105.838,21.436L-105.838,21.436C-106.066,21.045,-106.3,20.379,-106.299,19.278L-106.299,19.278C-106.296,17.729,-105.772,17.062,-105.52,16.824L-105.52,16.824C-105.464,16.771,-105.424,16.741,-105.403,16.495L-105.403,16.495L-99.653,16.495L-99.653,16.495L-105.445,16.495L-105.463,16.536C-105.483,16.544,-106.473,17.138,-106.473,19.278L-106.473,19.278C-106.478,21.549,-105.49,22.115,-105.468,22.122L-105.468,22.122L-105.45,22.132L-105.408,21.979Z" /></g></g></g><g id="Group 2"><g id="Group 1"><g id="Group 1"><path fill="#777777" fill-opacity="1" d="M-115.169,25.71L-115.219,25.687L-115.162,25.658L-115.169,25.71ZM-115.214,30.46L-109.091,30.453C-109.069,30.441,-108.987,30.37,-108.934,30.311C-108.855,30.221,-108.754,30.112,-108.631,29.919L-108.631,29.919C-108.387,29.534,-108.137,28.88,-108.137,27.797L-108.137,27.797C-108.141,26.273,-108.701,25.588,-108.97,25.354L-108.97,25.354C-109.03,25.302,-109.046,25.287,-109.068,25.273L-109.412,25.273L-115.14,25.273L-115.163,25.672L-109.408,25.666L-109.39,25.675C-109.37,25.682,-108.372,26.232,-108.373,28.215L-108.373,28.215C-108.367,30.319,-109.363,30.844,-109.385,30.85L-109.385,30.85L-109.403,30.859L-115.214,30.866L-115.214,30.458L-115.214,30.46Z" /></g></g></g><g id="Group 1"><g id="Group 1"><g id="Group 1"><path fill="#777777" fill-opacity="1" d="M-99.672,25.71L-99.622,25.687L-99.679,25.658L-99.672,25.71ZM-99.653,30.46L-105.777,30.453C-105.798,30.441,-105.881,30.37,-105.933,30.311C-106.013,30.221,-106.113,30.112,-106.236,29.919L-106.236,29.919C-106.48,29.534,-106.731,28.88,-106.73,27.797L-106.73,27.797C-106.727,26.273,-106.167,25.588,-105.897,25.354L-105.897,25.354C-105.837,25.302,-105.822,25.287,-105.8,25.273L-105.429,25.273L-99.701,25.273L-99.678,25.672L-105.46,25.666L-105.478,25.675C-105.498,25.682,-106.496,26.232,-106.495,28.215L-106.495,28.215C-106.501,30.319,-105.505,30.844,-105.482,30.85L-105.482,30.85L-105.465,30.859L-99.653,30.866L-99.653,30.458L-99.653,30.46Z" /></g></g></g></g></g><g id="Wifi Symbol"><g id="Group 4"><g id="Group 1"><path fill="#ffffff" fill-opacity="1" d="M-90.17,20.527C-90.021,20.527,-89.872,20.578,-89.751,20.682C-88.849,21.455,-88.332,22.579,-88.332,23.766C-88.332,25.035,-88.909,26.207,-89.915,26.983C-90.197,27.2,-90.601,27.148,-90.818,26.866C-91.035,26.584,-90.983,26.18,-90.701,25.962C-90.014,25.433,-89.62,24.632,-89.62,23.766C-89.62,22.956,-89.973,22.188,-90.589,21.66C-90.859,21.429,-90.891,21.022,-90.659,20.752C-90.532,20.603,-90.351,20.527,-90.17,20.527Z" /></g></g><g id="Group 3"><g id="Group 1"><path fill="#ffffff" fill-opacity="1" d="M-88.24,19.086C-88.072,19.086,-87.904,19.151,-87.778,19.281C-86.604,20.489,-85.957,22.081,-85.957,23.766C-85.957,25.44,-86.597,27.025,-87.758,28.23C-88.005,28.487,-88.413,28.494,-88.669,28.247C-88.925,28,-88.933,27.593,-88.686,27.336C-87.757,26.373,-87.246,25.105,-87.246,23.766C-87.246,22.419,-87.763,21.145,-88.701,20.179C-88.95,19.924,-88.944,19.516,-88.689,19.268C-88.563,19.146,-88.401,19.086,-88.24,19.086Z" /></g></g><g id="Group 2"><g id="Group 1"><path fill="#ffffff" fill-opacity="1" d="M-86.059,17.455C-85.882,17.455,-85.706,17.527,-85.579,17.669C-84.077,19.347,-83.249,21.512,-83.249,23.766C-83.249,25.922,-84.014,28.015,-85.403,29.66C-85.632,29.932,-86.039,29.966,-86.311,29.737C-86.583,29.507,-86.617,29.101,-86.388,28.829C-85.195,27.416,-84.538,25.618,-84.538,23.766C-84.538,21.83,-85.248,19.97,-86.539,18.529C-86.776,18.264,-86.754,17.856,-86.488,17.619C-86.365,17.509,-86.212,17.455,-86.059,17.455Z" /></g></g><g id="Group 1"><g id="Group 1"><path fill="#ffffff" fill-opacity="1" d="M-83.853,15.801C-83.671,15.801,-83.491,15.877,-83.364,16.025C-81.517,18.177,-80.5,20.926,-80.5,23.766C-80.5,26.461,-81.379,29.003,-83.043,31.117C-83.263,31.396,-83.668,31.445,-83.948,31.224C-84.228,31.004,-84.276,30.599,-84.056,30.32C-82.572,28.436,-81.788,26.169,-81.788,23.766C-81.788,21.234,-82.695,18.783,-84.341,16.864C-84.573,16.594,-84.542,16.188,-84.272,15.956C-84.151,15.852,-84.001,15.801,-83.853,15.801Z" /></g></g></g></g><g id="Group 1"><g id="Group 18"><path fill="#016fd0" fill-opacity="1" d="M16.164,-19.601L51.801,-19.601L51.801,-0.354L50.037,2.404L51.801,4.858L51.801,16.053L16.164,16.053L16.164,-2.091L17.267,-3.359L16.164,-4.572L16.164,-19.601Z" /></g><g id="Group 17"><path fill="#ffffff" fill-opacity="1" d="M23.082,5.244L23.082,-0.354L29.006,-0.354L29.641,0.475L30.298,-0.354L51.801,-0.354L51.801,4.858C51.801,4.858,51.238,5.238,50.588,5.244L38.682,5.244L37.965,4.362L37.965,5.244L35.617,5.244L35.617,3.738C35.617,3.738,35.296,3.948,34.602,3.948L33.803,3.948L33.803,5.244L30.248,5.244L29.613,4.397L28.969,5.244L23.082,5.244Z" /></g><g id="Group 16"><path fill="#ffffff" fill-opacity="1" d="M16.164,-4.572L17.5,-7.688L19.81,-7.688L20.568,-5.943L20.568,-7.688L23.44,-7.688L23.892,-6.427L24.329,-7.688L37.221,-7.688L37.221,-7.054C37.221,-7.054,37.898,-7.688,39.012,-7.688L43.195,-7.674L43.94,-5.951L43.94,-7.688L46.343,-7.688L47.005,-6.699L47.005,-7.688L49.43,-7.688L49.43,-2.091L47.005,-2.091L46.371,-3.083L46.371,-2.091L42.84,-2.091L42.485,-2.973L41.536,-2.973L41.186,-2.091L38.792,-2.091C37.833,-2.091,37.221,-2.712,37.221,-2.712L37.221,-2.091L33.61,-2.091L32.894,-2.973L32.894,-2.091L19.468,-2.091L19.113,-2.973L18.167,-2.973L17.815,-2.091L16.164,-2.091L16.164,-4.572Z" /></g><g id="Group 15"><path fill="#016fd0" fill-opacity="1" d="M18.639,-6.023L19.229,-4.556L18.049,-4.556L18.639,-6.023ZM17.973,-6.998L16.171,-2.807L17.344,-2.807L17.677,-3.646L19.609,-3.646L19.94,-2.807L21.139,-2.807L19.339,-6.998L17.973,-6.998Z" /></g><g id="Group 14"><path fill="#016fd0" fill-opacity="1" d="M21.263,-2.808L21.263,-6.999L22.93,-6.993L23.899,-4.29L24.846,-6.999L26.5,-6.999L26.5,-2.808L25.452,-2.808L25.452,-5.896L24.342,-2.808L23.423,-2.808L22.31,-5.896L22.31,-2.808L21.263,-2.808Z" /></g><g id="Group 13"><path fill="#016fd0" fill-opacity="1" d="M27.216,-2.808L27.216,-6.999L30.634,-6.999L30.634,-6.061L28.274,-6.061L28.274,-5.344L30.579,-5.344L30.579,-4.462L28.274,-4.462L28.274,-3.718L30.634,-3.718L30.634,-2.808L27.216,-2.808Z" /></g><g id="Group 12"><path fill="#016fd0" fill-opacity="1" d="M32.287,-6.061L33.485,-6.061C33.772,-6.061,33.981,-5.836,33.981,-5.619C33.981,-5.341,33.71,-5.178,33.5,-5.178L32.287,-5.178L32.287,-6.061ZM31.24,-6.998L31.24,-2.807L32.287,-2.807L32.287,-4.296L32.728,-4.296L33.984,-2.807L35.264,-2.807L33.886,-4.351C34.451,-4.399,35.035,-4.884,35.035,-5.638C35.035,-6.52,34.343,-6.998,33.571,-6.998L31.24,-6.998Z" /></g><g id="Group 11"><path fill="#016fd0" fill-opacity="1" d="M36.532,-2.808L35.462,-2.808L35.462,-6.999L36.532,-6.999L36.532,-2.808Z" /></g><g id="Group 10"><path fill="#016fd0" fill-opacity="1" d="M39.067,-2.808L38.837,-2.808C37.72,-2.808,37.042,-3.688,37.042,-4.886C37.042,-6.114,37.712,-6.999,39.123,-6.999L40.28,-6.999L40.28,-6.006L39.08,-6.006C38.508,-6.006,38.103,-5.559,38.103,-4.876C38.103,-4.064,38.566,-3.723,39.233,-3.723L39.508,-3.723L39.067,-2.808Z" /></g><g id="Group 9"><path fill="#016fd0" fill-opacity="1" d="M42.013,-6.023L42.602,-4.556L41.422,-4.556L42.013,-6.023ZM41.346,-6.998L39.545,-2.807L40.718,-2.807L41.05,-3.646L42.983,-3.646L43.314,-2.807L44.512,-2.807L42.712,-6.998L41.346,-6.998Z" /></g><g id="Group 8"><path fill="#016fd0" fill-opacity="1" d="M44.635,-2.808L44.635,-6.999L45.966,-6.999L47.666,-4.366L47.666,-6.999L48.714,-6.999L48.714,-2.808L47.425,-2.808L45.682,-5.51L45.682,-2.808L44.635,-2.808Z" /></g><g id="Group 7"><path fill="#016fd0" fill-opacity="1" d="M23.799,4.527L23.799,0.336L27.216,0.336L27.216,1.273L24.857,1.273L24.857,1.99L27.161,1.99L27.161,2.873L24.857,2.873L24.857,3.617L27.216,3.617L27.216,4.527L23.799,4.527Z" /></g><g id="Group 6"><path fill="#016fd0" fill-opacity="1" d="M40.545,4.527L40.545,0.336L43.962,0.336L43.962,1.273L41.603,1.273L41.603,1.99L43.896,1.99L43.896,2.873L41.603,2.873L41.603,3.617L43.962,3.617L43.962,4.527L40.545,4.527Z" /></g><g id="Group 5"><path fill="#016fd0" fill-opacity="1" d="M27.349,4.527L29.013,2.457L27.309,0.336L28.629,0.336L29.643,1.647L30.661,0.336L31.929,0.336L30.248,2.431L31.915,4.527L30.596,4.527L29.61,3.236L28.649,4.527L27.349,4.527Z" /></g><g id="Group 4"><path fill="#016fd0" fill-opacity="1" d="M33.114,1.284L34.275,1.284C34.577,1.284,34.792,1.469,34.792,1.767C34.792,2.047,34.578,2.249,34.272,2.249L33.114,2.249L33.114,1.284ZM32.039,0.337L32.039,4.528L33.114,4.528L33.114,3.204L34.217,3.204C35.149,3.204,35.856,2.709,35.856,1.746C35.856,0.949,35.302,0.337,34.353,0.337L32.039,0.337Z" /></g><g id="Group 3"><path fill="#016fd0" fill-opacity="1" d="M37.359,1.273L38.556,1.273C38.843,1.273,39.052,1.498,39.052,1.714C39.052,1.993,38.781,2.156,38.571,2.156L37.359,2.156L37.359,1.273ZM36.311,0.336L36.311,4.527L37.359,4.527L37.359,3.038L37.8,3.038L39.055,4.527L40.335,4.527L38.957,2.983C39.523,2.935,40.106,2.45,40.106,1.696C40.106,0.814,39.414,0.336,38.642,0.336L36.311,0.336Z" /></g><g id="Group 2"><path fill="#016fd0" fill-opacity="1" d="M44.447,4.527L44.447,3.617L46.543,3.617C46.853,3.617,46.988,3.449,46.988,3.266C46.988,3.089,46.854,2.911,46.543,2.911L45.596,2.911C44.773,2.911,44.314,2.409,44.314,1.656C44.314,0.984,44.734,0.336,45.958,0.336L47.997,0.336L47.556,1.279L45.792,1.279C45.455,1.279,45.351,1.456,45.351,1.625C45.351,1.799,45.48,1.99,45.737,1.99L46.729,1.99C47.647,1.99,48.045,2.511,48.045,3.193C48.045,3.926,47.602,4.527,46.679,4.527L44.447,4.527Z" /></g><g id="Group 1"><path fill="#016fd0" fill-opacity="1" d="M48.291,4.527L48.291,3.617L50.387,3.617C50.697,3.617,50.832,3.449,50.832,3.266C50.832,3.089,50.698,2.911,50.387,2.911L49.44,2.911C48.617,2.911,48.158,2.409,48.158,1.656C48.158,0.984,48.578,0.336,49.802,0.336L51.841,0.336L51.4,1.279L49.636,1.279C49.299,1.279,49.195,1.456,49.195,1.625C49.195,1.799,49.323,1.99,49.581,1.99L50.573,1.99C51.491,1.99,51.889,2.511,51.889,3.193C51.889,3.926,51.446,4.527,50.523,4.527L48.291,4.527Z" /></g></g></g></g></g></g></g></g></g></g></g></g><g transform="matrix(1.27,0,0,1.27,192.5,125.5)" id="Null 1"><g id="Card Null"><g transform="translate(-15,152)"><animateTransform repeatCount="indefinite" type="translate" attributeName="transform" dur="3s" begin="2.7s" calcMode="spline" values="-15 152; 45 64; 45 64; 45 95; 45 95; 45 349" keyTimes="0; 0.222; 0.333; 0.556; 0.778; 1" keySplines="0.57 0 0.43 1; 0 0 1 1; 0.79 0 0.21 1; 0 0 1 1; 0.27 0 0.2 1" fill="freeze" /><g transform="rotate(20)"><animateTransform repeatCount="indefinite" type="rotate" attributeName="transform" dur="0.667s" begin="3.7s" calcMode="spline" values="20; 40" keyTimes="0; 1" keySplines="0.79 0 0.21 1" fill="freeze" /><g transform="scale(1.005,1.005) translate(-50,-50)"><g visibility="hidden" id="Mastercard"><animate repeatCount="indefinite" begin="2.833s" calcMode="discrete" fill="freeze" dur="0.867s" values="visible; hidden" keyTimes="0; 1" attributeName="visibility" /><g transform="translate(412.228,155.208)"><animateTransform repeatCount="indefinite" type="translate" attributeName="transform" dur="0.667s" begin="2.833s" calcMode="spline" values="412.228 155.208; 80.12 87.726" keyTimes="0; 1" keySplines="0.57 0 0.43 1" fill="freeze" /><g transform="rotate(-46)"><animateTransform repeatCount="indefinite" type="rotate" attributeName="transform" dur="0.667s" begin="2.833s" calcMode="spline" values="-46; -40" keyTimes="0; 1" keySplines="0.57 0 0.43 1" fill="freeze" /><g transform="scale(1.36,1.36)"><animateTransform repeatCount="indefinite" type="scale" attributeName="transform" dur="0.667s" begin="2.833s" calcMode="spline" values="1.36 1.36; 1 1" keyTimes="0; 1" keySplines="0.57 0 0.43 1" fill="freeze" /><g transform="translate(30,-26)"><g id="Group 3"><path fill="url(#null)" d="M58,87L-118,87C-124.6,87,-130,81.6,-130,75L-130,-23C-130,-29.6,-124.6,-35,-118,-35L58,-35C64.6,-35,70,-29.6,70,-23L70,75C70,81.6,64.6,87,58,87Z" /></g><g id="Group 2"><g id="Group 1"><g id="Group 3"><path fill="#777777" fill-opacity="1" d="M-97.647,29.06C-97.646,30.053,-98.441,30.858,-99.423,30.859L-115.429,30.877C-116.411,30.878,-117.208,30.075,-117.209,29.082L-117.222,18.295C-117.223,17.301,-116.427,16.496,-115.445,16.495L-99.439,16.477C-98.457,16.476,-97.66,17.279,-97.658,18.273L-97.647,29.06Z" /></g><g id="Group 2"><g id="Group 1"><path fill="url(#null)" d="M-97.647,28.733C-97.646,29.686,-98.417,30.459,-99.369,30.46L-115.066,30.478C-116.028,30.479,-116.81,29.697,-116.81,28.731L-116.822,18.245C-116.823,17.279,-116.044,16.496,-115.082,16.495L-99.402,16.477C-98.441,16.476,-97.659,17.258,-97.658,18.223L-97.647,28.733Z" /></g></g><g id="Group 1"><g id="Group 10"><g id="Group 1"><path fill="#777777" fill-opacity="1" d="M-110.825,25.672L-110.825,22.081L-110.825,22.081L-110.825,25.672L-111.104,25.672L-110.825,25.672Z" /></g></g><g id="Group 9"><g id="Group 1"><path fill="#777777" fill-opacity="1" d="M-104.042,25.672L-104.042,22.081L-103.643,22.081L-103.643,25.672L-104.057,25.672L-104.042,25.672Z" /></g></g><g id="Group 8"><g id="Group 1"><path fill="#777777" fill-opacity="1" d="M-117.209,25.672L-117.209,25.273L-110.825,25.273L-110.825,25.672L-117.162,25.672L-117.209,25.672Z" /></g></g><g id="Group 7"><g id="Group 1"><path fill="#777777" fill-opacity="1" d="M-117.209,22.081L-117.209,21.682L-110.825,21.682L-110.825,22.081L-117.162,22.081L-117.209,22.081Z" /></g></g><g id="Group 6"><g id="Group 1"><path fill="#777777" fill-opacity="1" d="M-104.042,22.081L-104.042,21.682L-97.658,21.682L-97.658,22.081L-104.013,22.081L-104.042,22.081Z" /></g></g><g id="Group 5"><g id="Group 1"><path fill="#777777" fill-opacity="1" d="M-104.042,25.672L-104.042,25.273L-97.658,25.273L-97.658,25.672L-104.013,25.672L-104.042,25.672Z" /></g></g><g id="Group 4"><g id="Group 1"><g id="Group 1"><path fill="#777777" fill-opacity="1" d="M-115.163,16.734L-115.163,16.734L-115.163,16.734L-115.163,16.734ZM-114.815,22.081L-109.432,22.081C-109.412,21.967,-109.335,21.895,-109.286,21.834C-109.212,21.743,-109.118,21.632,-109.003,21.436L-109.003,21.436C-108.775,21.045,-108.54,20.379,-108.541,19.278L-108.541,19.278C-108.544,17.729,-109.068,17.062,-109.32,16.824L-109.32,16.824C-109.376,16.771,-109.417,16.741,-109.438,16.894L-109.438,16.894L-115.214,16.894L-115.214,16.495L-109.395,16.495L-109.377,16.536C-109.358,16.544,-108.367,17.138,-108.368,19.278L-108.368,19.278C-108.362,21.549,-109.35,22.115,-109.372,22.122L-109.372,22.122L-109.39,22.081L-114.815,22.081L-114.815,21.984L-114.815,22.081Z" /></g></g></g><g id="Group 3"><g id="Group 1"><g id="Group 1"><path fill="#777777" fill-opacity="1" d="M-99.677,16.734L-99.677,16.734L-99.677,16.734L-99.677,16.734ZM-105.408,21.979C-105.428,21.967,-105.505,21.895,-105.554,21.834C-105.629,21.743,-105.723,21.632,-105.838,21.436L-105.838,21.436C-106.066,21.045,-106.3,20.379,-106.299,19.278L-106.299,19.278C-106.296,17.729,-105.772,17.062,-105.52,16.824L-105.52,16.824C-105.464,16.771,-105.424,16.741,-105.403,16.495L-105.403,16.495L-99.653,16.495L-99.653,16.495L-105.445,16.495L-105.463,16.536C-105.483,16.544,-106.473,17.138,-106.473,19.278L-106.473,19.278C-106.478,21.549,-105.49,22.115,-105.468,22.122L-105.468,22.122L-105.45,22.132L-105.408,21.979Z" /></g></g></g><g id="Group 2"><g id="Group 1"><g id="Group 1"><path fill="#777777" fill-opacity="1" d="M-115.169,25.71L-115.219,25.687L-115.162,25.658L-115.169,25.71ZM-115.214,30.46L-109.091,30.453C-109.069,30.441,-108.987,30.37,-108.934,30.311C-108.855,30.221,-108.754,30.112,-108.631,29.919L-108.631,29.919C-108.387,29.534,-108.137,28.88,-108.137,27.797L-108.137,27.797C-108.141,26.273,-108.701,25.588,-108.97,25.354L-108.97,25.354C-109.03,25.302,-109.046,25.287,-109.068,25.273L-109.412,25.273L-115.14,25.273L-115.163,25.672L-109.408,25.666L-109.39,25.675C-109.37,25.682,-108.372,26.232,-108.373,28.215L-108.373,28.215C-108.367,30.319,-109.363,30.844,-109.385,30.85L-109.385,30.85L-109.403,30.859L-115.214,30.866L-115.214,30.458L-115.214,30.46Z" /></g></g></g><g id="Group 1"><g id="Group 1"><g id="Group 1"><path fill="#777777" fill-opacity="1" d="M-99.672,25.71L-99.622,25.687L-99.679,25.658L-99.672,25.71ZM-99.653,30.46L-105.777,30.453C-105.798,30.441,-105.881,30.37,-105.933,30.311C-106.013,30.221,-106.113,30.112,-106.236,29.919L-106.236,29.919C-106.48,29.534,-106.731,28.88,-106.73,27.797L-106.73,27.797C-106.727,26.273,-106.167,25.588,-105.897,25.354L-105.897,25.354C-105.837,25.302,-105.822,25.287,-105.8,25.273L-105.429,25.273L-99.701,25.273L-99.678,25.672L-105.46,25.666L-105.478,25.675C-105.498,25.682,-106.496,26.232,-106.495,28.215L-106.495,28.215C-106.501,30.319,-105.505,30.844,-105.482,30.85L-105.482,30.85L-105.465,30.859L-99.653,30.866L-99.653,30.458L-99.653,30.46Z" /></g></g></g></g></g><g id="Wifi Symbol"><g id="Group 4"><g id="Group 1"><path fill="#ffffff" fill-opacity="1" d="M-90.17,20.527C-90.021,20.527,-89.872,20.578,-89.751,20.682C-88.849,21.455,-88.332,22.579,-88.332,23.766C-88.332,25.035,-88.909,26.207,-89.915,26.983C-90.197,27.2,-90.601,27.148,-90.818,26.866C-91.035,26.584,-90.983,26.18,-90.701,25.962C-90.014,25.433,-89.62,24.632,-89.62,23.766C-89.62,22.956,-89.973,22.188,-90.589,21.66C-90.859,21.429,-90.891,21.022,-90.659,20.752C-90.532,20.603,-90.351,20.527,-90.17,20.527Z" /></g></g><g id="Group 3"><g id="Group 1"><path fill="#ffffff" fill-opacity="1" d="M-88.24,19.086C-88.072,19.086,-87.904,19.151,-87.778,19.281C-86.604,20.489,-85.957,22.081,-85.957,23.766C-85.957,25.44,-86.597,27.025,-87.758,28.23C-88.005,28.487,-88.413,28.494,-88.669,28.247C-88.925,28,-88.933,27.593,-88.686,27.336C-87.757,26.373,-87.246,25.105,-87.246,23.766C-87.246,22.419,-87.763,21.145,-88.701,20.179C-88.95,19.924,-88.944,19.516,-88.689,19.268C-88.563,19.146,-88.401,19.086,-88.24,19.086Z" /></g></g><g id="Group 2"><g id="Group 1"><path fill="#ffffff" fill-opacity="1" d="M-86.059,17.455C-85.882,17.455,-85.706,17.527,-85.579,17.669C-84.077,19.347,-83.249,21.512,-83.249,23.766C-83.249,25.922,-84.014,28.015,-85.403,29.66C-85.632,29.932,-86.039,29.966,-86.311,29.737C-86.583,29.507,-86.617,29.101,-86.388,28.829C-85.195,27.416,-84.538,25.618,-84.538,23.766C-84.538,21.83,-85.248,19.97,-86.539,18.529C-86.776,18.264,-86.754,17.856,-86.488,17.619C-86.365,17.509,-86.212,17.455,-86.059,17.455Z" /></g></g><g id="Group 1"><g id="Group 1"><path fill="#ffffff" fill-opacity="1" d="M-83.853,15.801C-83.671,15.801,-83.491,15.877,-83.364,16.025C-81.517,18.177,-80.5,20.926,-80.5,23.766C-80.5,26.461,-81.379,29.003,-83.043,31.117C-83.263,31.396,-83.668,31.445,-83.948,31.224C-84.228,31.004,-84.276,30.599,-84.056,30.32C-82.572,28.436,-81.788,26.169,-81.788,23.766C-81.788,21.234,-82.695,18.783,-84.341,16.864C-84.573,16.594,-84.542,16.188,-84.272,15.956C-84.151,15.852,-84.001,15.801,-83.853,15.801Z" /></g></g></g></g><g id="Group 1"><g id="Group 3"><path fill="#ff5f00" fill-opacity="1" d="M41.97,-14.303L32.352,-14.303L32.352,2.958L41.97,2.958L41.97,-14.303Z" /></g><g id="Group 2"><path fill="#eb001b" fill-opacity="1" d="M32.963,-5.672C32.963,-9.027,34.52,-12.229,37.146,-14.303C32.383,-18.054,25.482,-17.23,21.727,-12.442C17.971,-7.685,18.796,-0.793,23.589,2.958C27.589,6.099,33.177,6.099,37.177,2.958C34.52,0.884,32.963,-2.318,32.963,-5.672Z" /></g><g id="Group 1"><path fill="#f79e1b" fill-opacity="1" d="M54.947,-5.672C54.947,0.397,50.031,5.306,43.955,5.306C41.482,5.306,39.1,4.483,37.177,2.958C41.94,-0.793,42.764,-7.685,39.008,-12.473C38.459,-13.144,37.848,-13.784,37.177,-14.303C41.94,-18.054,48.871,-17.23,52.596,-12.442C54.122,-10.521,54.947,-8.142,54.947,-5.672Z" /></g></g></g></g></g></g></g></g></g></g></g></g><g transform="matrix(1.27,0,0,1.27,192.5,125.5)" id="Null 1"><g id="Card Null"><g transform="translate(-15,152)"><animateTransform repeatCount="indefinite" type="translate" attributeName="transform" dur="3s" begin="2.7s" calcMode="spline" values="-15 152; 45 64; 45 64; 45 95; 45 95; 45 349" keyTimes="0; 0.222; 0.333; 0.556; 0.778; 1" keySplines="0.57 0 0.43 1; 0 0 1 1; 0.79 0 0.21 1; 0 0 1 1; 0.27 0 0.2 1" fill="freeze" /><g transform="rotate(20)"><animateTransform repeatCount="indefinite" type="rotate" attributeName="transform" dur="0.667s" begin="3.7s" calcMode="spline" values="20; 40" keyTimes="0; 1" keySplines="0.79 0 0.21 1" fill="freeze" /><g transform="scale(1.005,1.005) translate(-50,-50)"><g visibility="hidden" id="Padlock Bottom"><animate repeatCount="indefinite" begin="2.767s" calcMode="discrete" fill="freeze" dur="10s" values="visible; visible" keyTimes="0; 1" attributeName="visibility" /><g transform="translate(91.479,98.598) rotate(-40)"><g transform="scale(0,0)"><animateTransform repeatCount="indefinite" type="scale" attributeName="transform" dur="1s" begin="3.367s" calcMode="spline" values="0 0; 1.366 1.246; 0.896 0.896" keyTimes="0; 0.333; 1" keySplines="0.57 0 0.43 1; 0.57 0 0.21 1" fill="freeze" /><g transform="translate(3.05,-26.9)"><g id="Group 1"><path fill="#ffffff" fill-opacity="1" d="M71.45,-34.6L-77.55,-34.6L-77.55,88.4L71.45,88.4L71.45,-34.6Z" /></g></g></g></g></g></g></g></g></g></g><g transform="matrix(1.27,0,0,1.27,192.5,125.5)" id="Null 1"><g id="Card Null"><g transform="translate(-15,152)"><animateTransform repeatCount="indefinite" type="translate" attributeName="transform" dur="3s" begin="2.7s" calcMode="spline" values="-15 152; 45 64; 45 64; 45 95; 45 95; 45 349" keyTimes="0; 0.222; 0.333; 0.556; 0.778; 1" keySplines="0.57 0 0.43 1; 0 0 1 1; 0.79 0 0.21 1; 0 0 1 1; 0.27 0 0.2 1" fill="freeze" /><g transform="rotate(20)"><animateTransform repeatCount="indefinite" type="rotate" attributeName="transform" dur="0.667s" begin="3.7s" calcMode="spline" values="20; 40" keyTimes="0; 1" keySplines="0.79 0 0.21 1" fill="freeze" /><g transform="scale(1.005,1.005) translate(-50,-50)"><g id="Padlock Bottom"><g transform="translate(91.479,98.598) rotate(-40)"><g transform="scale(0,0)"><animateTransform repeatCount="indefinite" type="scale" attributeName="transform" dur="1s" begin="3.367s" calcMode="spline" values="0 0; 1.366 1.246; 0.896 0.896" keyTimes="0; 0.333; 1" keySplines="0.57 0 0.43 1; 0.57 0 0.21 1" fill="freeze" /><g transform="translate(3.05,-26.9)"><g transform="matrix(0.896,0,0,0.896,13.353,-18.531)" visibility="hidden" id="Checkmark"><animate repeatCount="indefinite" begin="3.867s" calcMode="discrete" fill="freeze" dur="10s" values="visible; visible" keyTimes="0; 1" attributeName="visibility" /><g id="Shape 1"><path stroke-linejoin="miter" stroke-linecap="butt" stroke-width="10" stroke-opacity="1" stroke="#70ba65" d="M-42,44L-22.5,63.875L13.625,30" /></g></g></g></g></g></g></g></g></g></g></g><g transform="matrix(1.27,0,0,1.27,192.5,125.5)" id="Null 1"><g visibility="hidden" id="Stripe Card 2"><animate repeatCount="indefinite" begin="5.2s" calcMode="discrete" fill="freeze" dur="3.667s" values="visible; visible" keyTimes="0; 1" attributeName="visibility" /><g transform="translate(500.8,113.272)"><animateTransform repeatCount="indefinite" type="translate" attributeName="transform" dur="0.667s" begin="5.2s" calcMode="spline" values="500.8 113.272; 145.8 39.272" keyTimes="0; 1" keySplines="0.27 0 0.2 1" fill="freeze" /><g transform="rotate(-20)"><g transform="scale(1.084,1.084)"><animateTransform repeatCount="indefinite" type="scale" attributeName="transform" dur="0.667s" begin="5.2s" calcMode="spline" values="1.084 1.084; 0.854 0.854" keyTimes="0; 1" keySplines="0.27 0 0.2 1" fill="freeze" /><g id="Group 3"><path fill="url(#null)" d="M58,87L-118,87C-124.6,87,-130,81.6,-130,75L-130,-23C-130,-29.6,-124.6,-35,-118,-35L58,-35C64.6,-35,70,-29.6,70,-23L70,75C70,81.6,64.6,87,58,87Z" /></g><g id="Group 2"><g id="Group 1"><g id="Group 3"><path fill="#777777" fill-opacity="1" d="M-97.647,29.06C-97.646,30.053,-98.441,30.858,-99.423,30.859L-115.429,30.877C-116.411,30.878,-117.208,30.075,-117.209,29.082L-117.222,18.295C-117.223,17.301,-116.427,16.496,-115.445,16.495L-99.439,16.477C-98.457,16.476,-97.66,17.279,-97.658,18.273L-97.647,29.06Z" /></g><g id="Group 2"><g id="Group 1"><path fill="url(#null)" d="M-97.647,28.733C-97.646,29.686,-98.417,30.459,-99.369,30.46L-115.066,30.478C-116.028,30.479,-116.81,29.697,-116.81,28.731L-116.822,18.245C-116.823,17.279,-116.044,16.496,-115.082,16.495L-99.402,16.477C-98.441,16.476,-97.659,17.258,-97.658,18.223L-97.647,28.733Z" /></g></g><g id="Group 1"><g id="Group 10"><g id="Group 1"><path fill="#777777" fill-opacity="1" d="M-110.825,25.672L-110.825,22.081L-110.825,22.081L-110.825,25.672L-111.104,25.672L-110.825,25.672Z" /></g></g><g id="Group 9"><g id="Group 1"><path fill="#777777" fill-opacity="1" d="M-104.042,25.672L-104.042,22.081L-103.643,22.081L-103.643,25.672L-104.057,25.672L-104.042,25.672Z" /></g></g><g id="Group 8"><g id="Group 1"><path fill="#777777" fill-opacity="1" d="M-117.209,25.672L-117.209,25.273L-110.825,25.273L-110.825,25.672L-117.162,25.672L-117.209,25.672Z" /></g></g><g id="Group 7"><g id="Group 1"><path fill="#777777" fill-opacity="1" d="M-117.209,22.081L-117.209,21.682L-110.825,21.682L-110.825,22.081L-117.162,22.081L-117.209,22.081Z" /></g></g><g id="Group 6"><g id="Group 1"><path fill="#777777" fill-opacity="1" d="M-104.042,22.081L-104.042,21.682L-97.658,21.682L-97.658,22.081L-104.013,22.081L-104.042,22.081Z" /></g></g><g id="Group 5"><g id="Group 1"><path fill="#777777" fill-opacity="1" d="M-104.042,25.672L-104.042,25.273L-97.658,25.273L-97.658,25.672L-104.013,25.672L-104.042,25.672Z" /></g></g><g id="Group 4"><g id="Group 1"><g id="Group 1"><path fill="#777777" fill-opacity="1" d="M-115.163,16.734L-115.163,16.734L-115.163,16.734L-115.163,16.734ZM-114.815,22.081L-109.432,22.081C-109.412,21.967,-109.335,21.895,-109.286,21.834C-109.212,21.743,-109.118,21.632,-109.003,21.436L-109.003,21.436C-108.775,21.045,-108.54,20.379,-108.541,19.278L-108.541,19.278C-108.544,17.729,-109.068,17.062,-109.32,16.824L-109.32,16.824C-109.376,16.771,-109.417,16.741,-109.438,16.894L-109.438,16.894L-115.214,16.894L-115.214,16.495L-109.395,16.495L-109.377,16.536C-109.358,16.544,-108.367,17.138,-108.368,19.278L-108.368,19.278C-108.362,21.549,-109.35,22.115,-109.372,22.122L-109.372,22.122L-109.39,22.081L-114.815,22.081L-114.815,21.984L-114.815,22.081Z" /></g></g></g><g id="Group 3"><g id="Group 1"><g id="Group 1"><path fill="#777777" fill-opacity="1" d="M-99.677,16.734L-99.677,16.734L-99.677,16.734L-99.677,16.734ZM-105.408,21.979C-105.428,21.967,-105.505,21.895,-105.554,21.834C-105.629,21.743,-105.723,21.632,-105.838,21.436L-105.838,21.436C-106.066,21.045,-106.3,20.379,-106.299,19.278L-106.299,19.278C-106.296,17.729,-105.772,17.062,-105.52,16.824L-105.52,16.824C-105.464,16.771,-105.424,16.741,-105.403,16.495L-105.403,16.495L-99.653,16.495L-99.653,16.495L-105.445,16.495L-105.463,16.536C-105.483,16.544,-106.473,17.138,-106.473,19.278L-106.473,19.278C-106.478,21.549,-105.49,22.115,-105.468,22.122L-105.468,22.122L-105.45,22.132L-105.408,21.979Z" /></g></g></g><g id="Group 2"><g id="Group 1"><g id="Group 1"><path fill="#777777" fill-opacity="1" d="M-115.169,25.71L-115.219,25.687L-115.162,25.658L-115.169,25.71ZM-115.214,30.46L-109.091,30.453C-109.069,30.441,-108.987,30.37,-108.934,30.311C-108.855,30.221,-108.754,30.112,-108.631,29.919L-108.631,29.919C-108.387,29.534,-108.137,28.88,-108.137,27.797L-108.137,27.797C-108.141,26.273,-108.701,25.588,-108.97,25.354L-108.97,25.354C-109.03,25.302,-109.046,25.287,-109.068,25.273L-109.412,25.273L-115.14,25.273L-115.163,25.672L-109.408,25.666L-109.39,25.675C-109.37,25.682,-108.372,26.232,-108.373,28.215L-108.373,28.215C-108.367,30.319,-109.363,30.844,-109.385,30.85L-109.385,30.85L-109.403,30.859L-115.214,30.866L-115.214,30.458L-115.214,30.46Z" /></g></g></g><g id="Group 1"><g id="Group 1"><g id="Group 1"><path fill="#777777" fill-opacity="1" d="M-99.672,25.71L-99.622,25.687L-99.679,25.658L-99.672,25.71ZM-99.653,30.46L-105.777,30.453C-105.798,30.441,-105.881,30.37,-105.933,30.311C-106.013,30.221,-106.113,30.112,-106.236,29.919L-106.236,29.919C-106.48,29.534,-106.731,28.88,-106.73,27.797L-106.73,27.797C-106.727,26.273,-106.167,25.588,-105.897,25.354L-105.897,25.354C-105.837,25.302,-105.822,25.287,-105.8,25.273L-105.429,25.273L-99.701,25.273L-99.678,25.672L-105.46,25.666L-105.478,25.675C-105.498,25.682,-106.496,26.232,-106.495,28.215L-106.495,28.215C-106.501,30.319,-105.505,30.844,-105.482,30.85L-105.482,30.85L-105.465,30.859L-99.653,30.866L-99.653,30.458L-99.653,30.46Z" /></g></g></g></g></g><g id="Wifi Symbol"><g id="Group 4"><g id="Group 1"><path fill="#ffffff" fill-opacity="1" d="M-90.17,20.527C-90.021,20.527,-89.872,20.578,-89.751,20.682C-88.849,21.455,-88.332,22.579,-88.332,23.766C-88.332,25.035,-88.909,26.207,-89.915,26.983C-90.197,27.2,-90.601,27.148,-90.818,26.866C-91.035,26.584,-90.983,26.18,-90.701,25.962C-90.014,25.433,-89.62,24.632,-89.62,23.766C-89.62,22.956,-89.973,22.188,-90.589,21.66C-90.859,21.429,-90.891,21.022,-90.659,20.752C-90.532,20.603,-90.351,20.527,-90.17,20.527Z" /></g></g><g id="Group 3"><g id="Group 1"><path fill="#ffffff" fill-opacity="1" d="M-88.24,19.086C-88.072,19.086,-87.904,19.151,-87.778,19.281C-86.604,20.489,-85.957,22.081,-85.957,23.766C-85.957,25.44,-86.597,27.025,-87.758,28.23C-88.005,28.487,-88.413,28.494,-88.669,28.247C-88.925,28,-88.933,27.593,-88.686,27.336C-87.757,26.373,-87.246,25.105,-87.246,23.766C-87.246,22.419,-87.763,21.145,-88.701,20.179C-88.95,19.924,-88.944,19.516,-88.689,19.268C-88.563,19.146,-88.401,19.086,-88.24,19.086Z" /></g></g><g id="Group 2"><g id="Group 1"><path fill="#ffffff" fill-opacity="1" d="M-86.059,17.455C-85.882,17.455,-85.706,17.527,-85.579,17.669C-84.077,19.347,-83.249,21.512,-83.249,23.766C-83.249,25.922,-84.014,28.015,-85.403,29.66C-85.632,29.932,-86.039,29.966,-86.311,29.737C-86.583,29.507,-86.617,29.101,-86.388,28.829C-85.195,27.416,-84.538,25.618,-84.538,23.766C-84.538,21.83,-85.248,19.97,-86.539,18.529C-86.776,18.264,-86.754,17.856,-86.488,17.619C-86.365,17.509,-86.212,17.455,-86.059,17.455Z" /></g></g><g id="Group 1"><g id="Group 1"><path fill="#ffffff" fill-opacity="1" d="M-83.853,15.801C-83.671,15.801,-83.491,15.877,-83.364,16.025C-81.517,18.177,-80.5,20.926,-80.5,23.766C-80.5,26.461,-81.379,29.003,-83.043,31.117C-83.263,31.396,-83.668,31.445,-83.948,31.224C-84.228,31.004,-84.276,30.599,-84.056,30.32C-82.572,28.436,-81.788,26.169,-81.788,23.766C-81.788,21.234,-82.695,18.783,-84.341,16.864C-84.573,16.594,-84.542,16.188,-84.272,15.956C-84.151,15.852,-84.001,15.801,-83.853,15.801Z" /></g></g></g></g><g id="Group 1"><g id="Group 7"><path fill="#635bff" fill-opacity="1" d="M51.768,-7.216C51.768,-8.641,52.638,-9.234,53.433,-9.234C54.203,-9.234,55.023,-8.641,55.023,-7.216L51.768,-7.216ZM58,-6.017C58,-9.247,56.436,-11.795,53.446,-11.795C50.443,-11.795,48.627,-9.247,48.627,-6.042C48.627,-2.245,50.771,-0.327,53.849,-0.327C55.351,-0.327,56.486,-0.668,57.344,-1.147L57.344,-3.671C56.486,-3.242,55.502,-2.977,54.253,-2.977C53.029,-2.977,51.944,-3.406,51.806,-4.894L57.975,-4.894C57.975,-5.058,58,-5.714,58,-6.017Z" /></g><g id="Group 6"><path fill="#635bff" fill-opacity="1" d="M43,-3.103C42.256,-3.103,41.814,-3.368,41.511,-3.696L41.499,-8.376C41.827,-8.742,42.281,-8.994,43,-8.994C44.148,-8.994,44.943,-7.708,44.943,-6.055C44.943,-4.365,44.161,-3.103,43,-3.103ZM43.757,-11.795C42.521,-11.795,41.726,-11.215,41.284,-10.811L41.12,-11.593L38.345,-11.593L38.345,3.117L41.499,2.448L41.511,-1.122C41.965,-0.794,42.634,-0.327,43.744,-0.327C46.003,-0.327,48.059,-2.144,48.059,-6.143C48.046,-9.802,45.965,-11.795,43.757,-11.795Z" /></g><g id="Group 5"><path fill="#635bff" fill-opacity="1" d="M34.005,-12.539L37.172,-13.221L37.172,-15.782L34.005,-15.113L34.005,-12.539Z" /></g><g id="Group 4"><path fill="#635bff" fill-opacity="1" d="M34.005,-11.581L37.172,-11.581L37.172,-0.542L34.005,-0.542L34.005,-11.581Z" /></g><g id="Group 3"><path fill="#635bff" fill-opacity="1" d="M30.611,-10.647L30.41,-11.581L27.685,-11.581L27.685,-0.542L30.838,-0.542L30.838,-8.023C31.583,-8.994,32.844,-8.818,33.235,-8.679L33.235,-11.581C32.832,-11.732,31.356,-12.01,30.611,-10.647Z" /></g><g id="Group 2"><path fill="#635bff" fill-opacity="1" d="M24.304,-14.318L21.225,-13.662L21.213,-3.557C21.213,-1.69,22.613,-0.315,24.48,-0.315C25.515,-0.315,26.272,-0.504,26.688,-0.731L26.688,-3.292C26.284,-3.128,24.291,-2.548,24.291,-4.415L24.291,-8.894L26.688,-8.894L26.688,-11.581L24.291,-11.581L24.304,-14.318Z" /></g><g id="Group 1"><path fill="#635bff" fill-opacity="1" d="M15.775,-8.376C15.775,-8.868,16.179,-9.058,16.848,-9.058C17.807,-9.058,19.018,-8.767,19.976,-8.25L19.976,-11.215C18.929,-11.631,17.895,-11.795,16.848,-11.795C14.287,-11.795,12.584,-10.458,12.584,-8.225C12.584,-4.743,17.378,-5.298,17.378,-3.797C17.378,-3.216,16.873,-3.027,16.166,-3.027C15.119,-3.027,13.782,-3.456,12.722,-4.036L12.722,-1.034C13.896,-0.529,15.082,-0.315,16.166,-0.315C18.791,-0.315,20.595,-1.614,20.595,-3.872C20.582,-7.632,15.775,-6.963,15.775,-8.376Z" /></g></g></g></g></g></g></g><g transform="matrix(1.27,0,0,1.27,192.5,125.5)" id="Null 1"><g visibility="hidden" id="Discover Card 2"><animate repeatCount="indefinite" begin="5.167s" calcMode="discrete" fill="freeze" dur="3.667s" values="visible; visible" keyTimes="0; 1" attributeName="visibility" /><g transform="translate(-127.52,371.076)"><animateTransform repeatCount="indefinite" type="translate" attributeName="transform" dur="0.667s" begin="5.167s" calcMode="spline" values="-127.52 371.076; 28.48 138.076" keyTimes="0; 1" keySplines="0.27 0 0.2 1" fill="freeze" /><g transform="rotate(20)"><g transform="scale(2.256,2.256)"><animateTransform repeatCount="indefinite" type="scale" attributeName="transform" dur="0.667s" begin="5.167s" calcMode="spline" values="2.256 2.256; 1.186 1.186" keyTimes="0; 1" keySplines="0.27 0 0.2 1" fill="freeze" /><g id="Group 2"><path fill="url(#null)" d="M58,87L-118,87C-124.6,87,-130,81.6,-130,75L-130,-23C-130,-29.6,-124.6,-35,-118,-35L58,-35C64.6,-35,70,-29.6,70,-23L70,75C70,81.6,64.6,87,58,87Z" /></g><g id="Group 1"><g id="Group 1"><g id="Group 3"><path fill="#777777" fill-opacity="1" d="M-97.647,29.06C-97.646,30.053,-98.441,30.858,-99.423,30.859L-115.429,30.877C-116.411,30.878,-117.208,30.075,-117.209,29.082L-117.222,18.295C-117.223,17.301,-116.427,16.496,-115.445,16.495L-99.439,16.477C-98.457,16.476,-97.66,17.279,-97.658,18.273L-97.647,29.06Z" /></g><g id="Group 2"><g id="Group 1"><path fill="url(#null)" d="M-97.647,28.733C-97.646,29.686,-98.417,30.459,-99.369,30.46L-115.066,30.478C-116.028,30.479,-116.81,29.697,-116.81,28.731L-116.822,18.245C-116.823,17.279,-116.044,16.496,-115.082,16.495L-99.402,16.477C-98.441,16.476,-97.659,17.258,-97.658,18.223L-97.647,28.733Z" /></g></g><g id="Group 1"><g id="Group 10"><g id="Group 1"><path fill="#777777" fill-opacity="1" d="M-110.825,25.672L-110.825,22.081L-110.825,22.081L-110.825,25.672L-111.104,25.672L-110.825,25.672Z" /></g></g><g id="Group 9"><g id="Group 1"><path fill="#777777" fill-opacity="1" d="M-104.042,25.672L-104.042,22.081L-103.643,22.081L-103.643,25.672L-104.057,25.672L-104.042,25.672Z" /></g></g><g id="Group 8"><g id="Group 1"><path fill="#777777" fill-opacity="1" d="M-117.209,25.672L-117.209,25.273L-110.825,25.273L-110.825,25.672L-117.162,25.672L-117.209,25.672Z" /></g></g><g id="Group 7"><g id="Group 1"><path fill="#777777" fill-opacity="1" d="M-117.209,22.081L-117.209,21.682L-110.825,21.682L-110.825,22.081L-117.162,22.081L-117.209,22.081Z" /></g></g><g id="Group 6"><g id="Group 1"><path fill="#777777" fill-opacity="1" d="M-104.042,22.081L-104.042,21.682L-97.658,21.682L-97.658,22.081L-104.013,22.081L-104.042,22.081Z" /></g></g><g id="Group 5"><g id="Group 1"><path fill="#777777" fill-opacity="1" d="M-104.042,25.672L-104.042,25.273L-97.658,25.273L-97.658,25.672L-104.013,25.672L-104.042,25.672Z" /></g></g><g id="Group 4"><g id="Group 1"><g id="Group 1"><path fill="#777777" fill-opacity="1" d="M-115.163,16.734L-115.163,16.734L-115.163,16.734L-115.163,16.734ZM-114.815,22.081L-109.432,22.081C-109.412,21.967,-109.335,21.895,-109.286,21.834C-109.212,21.743,-109.118,21.632,-109.003,21.436L-109.003,21.436C-108.775,21.045,-108.54,20.379,-108.541,19.278L-108.541,19.278C-108.544,17.729,-109.068,17.062,-109.32,16.824L-109.32,16.824C-109.376,16.771,-109.417,16.741,-109.438,16.894L-109.438,16.894L-115.214,16.894L-115.214,16.495L-109.395,16.495L-109.377,16.536C-109.358,16.544,-108.367,17.138,-108.368,19.278L-108.368,19.278C-108.362,21.549,-109.35,22.115,-109.372,22.122L-109.372,22.122L-109.39,22.081L-114.815,22.081L-114.815,21.984L-114.815,22.081Z" /></g></g></g><g id="Group 3"><g id="Group 1"><g id="Group 1"><path fill="#777777" fill-opacity="1" d="M-99.677,16.734L-99.677,16.734L-99.677,16.734L-99.677,16.734ZM-105.408,21.979C-105.428,21.967,-105.505,21.895,-105.554,21.834C-105.629,21.743,-105.723,21.632,-105.838,21.436L-105.838,21.436C-106.066,21.045,-106.3,20.379,-106.299,19.278L-106.299,19.278C-106.296,17.729,-105.772,17.062,-105.52,16.824L-105.52,16.824C-105.464,16.771,-105.424,16.741,-105.403,16.495L-105.403,16.495L-99.653,16.495L-99.653,16.495L-105.445,16.495L-105.463,16.536C-105.483,16.544,-106.473,17.138,-106.473,19.278L-106.473,19.278C-106.478,21.549,-105.49,22.115,-105.468,22.122L-105.468,22.122L-105.45,22.132L-105.408,21.979Z" /></g></g></g><g id="Group 2"><g id="Group 1"><g id="Group 1"><path fill="#777777" fill-opacity="1" d="M-115.169,25.71L-115.219,25.687L-115.162,25.658L-115.169,25.71ZM-115.214,30.46L-109.091,30.453C-109.069,30.441,-108.987,30.37,-108.934,30.311C-108.855,30.221,-108.754,30.112,-108.631,29.919L-108.631,29.919C-108.387,29.534,-108.137,28.88,-108.137,27.797L-108.137,27.797C-108.141,26.273,-108.701,25.588,-108.97,25.354L-108.97,25.354C-109.03,25.302,-109.046,25.287,-109.068,25.273L-109.412,25.273L-115.14,25.273L-115.163,25.672L-109.408,25.666L-109.39,25.675C-109.37,25.682,-108.372,26.232,-108.373,28.215L-108.373,28.215C-108.367,30.319,-109.363,30.844,-109.385,30.85L-109.385,30.85L-109.403,30.859L-115.214,30.866L-115.214,30.458L-115.214,30.46Z" /></g></g></g><g id="Group 1"><g id="Group 1"><g id="Group 1"><path fill="#777777" fill-opacity="1" d="M-99.672,25.71L-99.622,25.687L-99.679,25.658L-99.672,25.71ZM-99.653,30.46L-105.777,30.453C-105.798,30.441,-105.881,30.37,-105.933,30.311C-106.013,30.221,-106.113,30.112,-106.236,29.919L-106.236,29.919C-106.48,29.534,-106.731,28.88,-106.73,27.797L-106.73,27.797C-106.727,26.273,-106.167,25.588,-105.897,25.354L-105.897,25.354C-105.837,25.302,-105.822,25.287,-105.8,25.273L-105.429,25.273L-99.701,25.273L-99.678,25.672L-105.46,25.666L-105.478,25.675C-105.498,25.682,-106.496,26.232,-106.495,28.215L-106.495,28.215C-106.501,30.319,-105.505,30.844,-105.482,30.85L-105.482,30.85L-105.465,30.859L-99.653,30.866L-99.653,30.458L-99.653,30.46Z" /></g></g></g></g></g><g id="Wifi Symbol"><g id="Group 4"><g id="Group 1"><path fill="#ffffff" fill-opacity="1" d="M-90.17,20.527C-90.021,20.527,-89.872,20.578,-89.751,20.682C-88.849,21.455,-88.332,22.579,-88.332,23.766C-88.332,25.035,-88.909,26.207,-89.915,26.983C-90.197,27.2,-90.601,27.148,-90.818,26.866C-91.035,26.584,-90.983,26.18,-90.701,25.962C-90.014,25.433,-89.62,24.632,-89.62,23.766C-89.62,22.956,-89.973,22.188,-90.589,21.66C-90.859,21.429,-90.891,21.022,-90.659,20.752C-90.532,20.603,-90.351,20.527,-90.17,20.527Z" /></g></g><g id="Group 3"><g id="Group 1"><path fill="#ffffff" fill-opacity="1" d="M-88.24,19.086C-88.072,19.086,-87.904,19.151,-87.778,19.281C-86.604,20.489,-85.957,22.081,-85.957,23.766C-85.957,25.44,-86.597,27.025,-87.758,28.23C-88.005,28.487,-88.413,28.494,-88.669,28.247C-88.925,28,-88.933,27.593,-88.686,27.336C-87.757,26.373,-87.246,25.105,-87.246,23.766C-87.246,22.419,-87.763,21.145,-88.701,20.179C-88.95,19.924,-88.944,19.516,-88.689,19.268C-88.563,19.146,-88.401,19.086,-88.24,19.086Z" /></g></g><g id="Group 2"><g id="Group 1"><path fill="#ffffff" fill-opacity="1" d="M-86.059,17.455C-85.882,17.455,-85.706,17.527,-85.579,17.669C-84.077,19.347,-83.249,21.512,-83.249,23.766C-83.249,25.922,-84.014,28.015,-85.403,29.66C-85.632,29.932,-86.039,29.966,-86.311,29.737C-86.583,29.507,-86.617,29.101,-86.388,28.829C-85.195,27.416,-84.538,25.618,-84.538,23.766C-84.538,21.83,-85.248,19.97,-86.539,18.529C-86.776,18.264,-86.754,17.856,-86.488,17.619C-86.365,17.509,-86.212,17.455,-86.059,17.455Z" /></g></g><g id="Group 1"><g id="Group 1"><path fill="#ffffff" fill-opacity="1" d="M-83.853,15.801C-83.671,15.801,-83.491,15.877,-83.364,16.025C-81.517,18.177,-80.5,20.926,-80.5,23.766C-80.5,26.461,-81.379,29.003,-83.043,31.117C-83.263,31.396,-83.668,31.445,-83.948,31.224C-84.228,31.004,-84.276,30.599,-84.056,30.32C-82.572,28.436,-81.788,26.169,-81.788,23.766C-81.788,21.234,-82.695,18.783,-84.341,16.864C-84.573,16.594,-84.542,16.188,-84.272,15.956C-84.151,15.852,-84.001,15.801,-83.853,15.801Z" /></g></g></g></g><g id="Page-1"><g id="Artboard-Copy"><g id="Discover-Card"><g id="Shape"><path fill="#ffffff" fill-opacity="1" d="M2.415,-4.599C1.844,-4.101,1.13,-3.885,-0.045,-3.885L-0.509,-3.885L-0.509,-9.948L-0.045,-9.948C1.097,-9.948,1.81,-9.735,2.415,-9.198C3.055,-8.627,3.413,-7.771,3.413,-6.915C3.411,-6.025,3.055,-5.136,2.415,-4.599L2.415,-4.599ZM0.344,-11.481L-2.294,-11.481L-2.294,-2.318L0.308,-2.318C1.699,-2.318,2.697,-2.64,3.59,-3.387C4.625,-4.243,5.265,-5.561,5.265,-6.918C5.265,-9.592,3.234,-11.481,0.344,-11.481L0.344,-11.481Z" /></g><g id="Rectangle-path"><path fill="#ffffff" fill-opacity="1" d="M6.085,-11.481L7.867,-11.481L7.867,-2.318L6.085,-2.318L6.085,-11.481Z" /></g><g id="Shape"><path fill="#ffffff" fill-opacity="1" d="M12.254,-7.987C11.185,-8.378,10.864,-8.627,10.864,-9.128C10.864,-9.699,11.434,-10.127,12.184,-10.127C12.718,-10.127,13.146,-9.914,13.647,-9.377L14.573,-10.625C13.79,-11.302,12.897,-11.66,11.862,-11.66C10.223,-11.66,9.009,-10.518,9.009,-9.022C9.009,-7.737,9.579,-7.097,11.255,-6.49C11.969,-6.241,12.324,-6.062,12.503,-5.955C12.858,-5.743,13.037,-5.385,13.037,-4.993C13.037,-4.243,12.43,-3.709,11.647,-3.709C10.791,-3.709,10.114,-4.137,9.686,-4.92L8.544,-3.852C9.364,-2.64,10.363,-2.106,11.717,-2.106C13.572,-2.106,14.89,-3.353,14.89,-5.136C14.892,-6.56,14.288,-7.237,12.254,-7.987L12.254,-7.987Z" /></g><g id="Shape"><path fill="#ffffff" fill-opacity="1" d="M15.463,-6.881C15.463,-4.171,17.567,-2.103,20.311,-2.103C21.095,-2.103,21.738,-2.246,22.558,-2.637L22.558,-4.741C21.845,-4.028,21.204,-3.743,20.384,-3.743C18.566,-3.743,17.318,-5.063,17.318,-6.915C17.318,-8.661,18.638,-10.054,20.314,-10.054C21.17,-10.054,21.811,-9.769,22.56,-9.019L22.56,-11.123C21.777,-11.515,21.134,-11.694,20.35,-11.694C17.639,-11.696,15.463,-9.556,15.463,-6.881L15.463,-6.881Z" /></g><g id="Shape"><path fill="#ffffff" fill-opacity="1" d="M37.036,-5.312L34.61,-11.481L32.649,-11.481L36.535,-2.067L37.5,-2.067L41.456,-11.481L39.531,-11.481L37.036,-5.312Z" /></g><g id="Shape"><path fill="#ffffff" fill-opacity="1" d="M42.276,-2.318L47.34,-2.318L47.34,-3.852L44.061,-3.852L44.061,-6.347L47.233,-6.347L47.233,-7.916L44.061,-7.916L44.061,-9.948L47.34,-9.948L47.34,-11.481L42.276,-11.481L42.276,-2.318Z" /></g><g id="Shape"><path fill="#ffffff" fill-opacity="1" d="M50.834,-7.273L50.299,-7.273L50.299,-10.054L50.834,-10.054C51.939,-10.054,52.546,-9.59,52.546,-8.7C52.582,-7.774,51.975,-7.273,50.834,-7.273L50.834,-7.273ZM54.434,-8.773C54.434,-10.485,53.257,-11.483,51.189,-11.483L48.517,-11.483L48.517,-2.321L50.299,-2.321L50.299,-5.989L50.548,-5.989L53.008,-2.316L55.218,-2.316L52.331,-6.168C53.687,-6.453,54.434,-7.38,54.434,-8.773L54.434,-8.773Z" /></g><g id="Group 3"><g id="Oval" transform="matrix(1,0,0,1,0,0)" opacity="0.65"><path fill="url(#null)" d="M28.192,-1.996C30.869,-1.996,33.04,-4.167,33.04,-6.844C33.04,-9.521,30.872,-11.695,28.192,-11.695C25.512,-11.695,23.344,-9.524,23.344,-6.847C23.344,-4.17,25.515,-1.996,28.192,-1.996Z" /></g><g id="Oval"><path fill="url(#null)" d="M28.192,-11.695C30.87,-11.695,33.04,-9.524,33.04,-6.847C33.04,-4.169,30.87,-1.998,28.192,-1.998C25.514,-1.998,23.344,-4.169,23.344,-6.847C23.344,-9.524,25.514,-11.695,28.192,-11.695Z" /></g></g><g id="Group 2"><g id="Shape"><path fill="#ffffff" fill-opacity="1" d="M55.328,-10.982L55.328,-10.982L55.291,-11.194L55.328,-11.194C55.434,-11.194,55.47,-11.158,55.47,-11.088C55.47,-11.018,55.398,-10.982,55.328,-10.982L55.328,-10.982ZM55.683,-11.088C55.683,-11.267,55.577,-11.337,55.361,-11.337L55.076,-11.337L55.076,-10.481L55.289,-10.481L55.289,-10.839L55.538,-10.517L55.787,-10.517L55.502,-10.873C55.613,-10.875,55.683,-10.982,55.683,-11.088L55.683,-11.088Z" /></g><g id="Shape"><path fill="#ffffff" fill-opacity="1" d="M55.398,-10.341C55.076,-10.341,54.791,-10.626,54.791,-10.948C54.791,-11.303,55.04,-11.555,55.398,-11.555C55.719,-11.555,55.968,-11.27,55.968,-10.948C55.968,-10.59,55.719,-10.341,55.398,-10.341L55.398,-10.341ZM55.398,-11.695C54.97,-11.695,54.648,-11.373,54.648,-10.945C54.648,-10.517,54.97,-10.196,55.398,-10.196C55.789,-10.196,56.147,-10.517,56.147,-10.945C56.111,-11.34,55.789,-11.695,55.398,-11.695L55.398,-11.695Z" /></g></g></g></g></g><g id="Page-1"><g id="Artboard-Copy"><g id="Discover-Card"><g id="Group 1"><g id="Group 2"><path fill="url(#null)" d="M70,19.342L70,37.455C67.132,37.258,64.635,35.723,63.117,33.475C62.954,33.235,62.802,32.985,62.662,32.729C61.962,31.441,61.566,29.965,61.566,28.399C61.566,26.832,61.962,25.356,62.662,24.068C62.802,23.812,62.954,23.562,63.117,23.322C64.635,21.071,67.132,19.54,70,19.342Z" /></g><g id="Group 1" transform="matrix(1,0,0,1,0,0)" opacity="0.65"><path fill="url(#null)" d="M70,19.342L70,37.455C67.132,37.258,64.635,35.723,63.117,33.475C62.954,33.235,62.802,32.985,62.662,32.729C61.962,31.441,61.566,29.965,61.566,28.399C61.566,26.832,61.962,25.356,62.662,24.068C62.802,23.812,62.954,23.562,63.117,23.322C64.635,21.071,67.132,19.54,70,19.342Z" /></g></g></g></g></g></g></g></g></g></g><g transform="matrix(1.27,0,0,1.27,192.5,125.5)" id="Null 1" /></svg>